<?xml version="1.0" encoding="UTF-8"?>
<svg version="1.1" xmlns="http://www.w3.org/2000/svg" viewBox="280 240 720 720">
<path d="M0 0 C1.8125 0.0625 1.8125 0.0625 4 1 C4.70478556 2.53290858 5.39343255 4.07428009 6.0246582 5.63891602 C8.23202632 10.9824597 10.75252055 16.19458997 13.1875 21.4375 C13.47889862 22.06548492 13.77029724 22.69346985 14.07052612 23.34048462 C17.60195755 30.94391592 21.18077716 38.51473253 24.97802734 45.98974609 C29.63688871 55.17972973 34.02741896 64.50239986 38.46972656 73.79833984 C39.94423125 76.88331981 41.42095369 79.96722715 42.8984375 83.05078125 C46.82096176 91.24047246 50.73663542 99.43297315 54.61010742 107.64599609 C57.47177365 113.71255689 60.35498395 119.76006296 63.375 125.75 C66.83703379 132.61861166 70.15276058 139.55324789 73.46044922 146.49731445 C76.10007468 152.03572698 78.75393037 157.56678292 81.43359375 163.0859375 C82.62265749 165.53633147 83.81148402 167.9868403 85 170.4375 C85.44440933 171.35370621 85.44440933 171.35370621 85.89779663 172.28842163 C90.00546187 180.76610427 93.99087577 189.29217293 97.875 197.875 C100.75455081 204.23687036 103.69184662 210.50791986 107.0625 216.625 C110.79982555 223.43472816 114.00825227 230.43246721 117.14868164 237.53564453 C120.19466182 244.38414789 123.50711392 251.07499956 126.87646484 257.76782227 C130.42041167 264.81310231 133.86529792 271.90702271 137.3125 279 C137.67995331 279.75536041 138.04740662 280.51072083 138.42599487 281.28897095 C143.55341642 291.83792284 148.54880706 302.4330763 153.38989258 313.11694336 C156.11584971 319.11949783 158.9563334 325.04231962 161.94360352 330.91870117 C164.89311099 336.73318801 167.69970518 342.61242066 170.5 348.5 C173.55921658 354.93110691 176.64621319 361.33984252 179.875 367.6875 C183.6047861 375.03690974 187.04769385 382.51759895 190.5 390 C194.19474979 398.00681512 197.91393305 405.9890075 201.90893555 413.85131836 C209.82768473 429.47435485 217.22419402 445.36826757 224.77368164 461.17211914 C228.41519724 468.78975495 232.07890655 476.39658089 235.75 484 C236.04103607 484.60302948 236.33207214 485.20605896 236.63192749 485.82736206 C240.03526359 492.87857763 243.44819031 499.9250051 246.875 506.96484375 C252.95208398 519.45850669 258.95886654 531.96657654 264.65209961 544.64160156 C267.21745049 550.33523299 269.91132774 555.93991969 272.73632812 561.50854492 C275.90724453 567.77174028 278.98474945 574.07951696 282.04135132 580.39907837 C282.63498452 581.62517907 283.23003924 582.85059261 283.8265686 584.07528687 C284.66806237 585.80358584 285.50405104 587.53456184 286.33984375 589.265625 C286.82831787 590.27399414 287.31679199 591.28236328 287.82006836 592.32128906 C288.8141027 594.5779712 289.61308856 596.56917927 290 599 C288.14494197 600.85505803 285.07749856 600.14256853 282.59793091 600.15390015 C281.92132349 600.1582824 281.24471607 600.16266465 280.5476054 600.1671797 C278.26366782 600.18061303 275.97976887 600.18675663 273.69580078 600.19287109 C272.06507185 600.20076842 270.43434468 600.20903714 268.80361938 600.21765137 C263.43420083 600.24391163 258.06477432 600.25918178 252.6953125 600.2734375 C250.85011667 600.27879531 249.0049209 600.28417281 247.15972519 600.28956985 C239.48721303 600.31120339 231.81470301 600.32994211 224.14216805 600.34119225 C213.1291579 600.35744419 202.11649991 600.39064656 191.10362256 600.44759309 C183.3694368 600.48622894 175.63534547 600.5058173 167.90106571 600.51111281 C163.27693341 600.5147747 158.65317634 600.52688423 154.0291481 600.55921555 C149.68048072 600.58918518 145.33241776 600.59564815 140.98366928 600.58383179 C139.38524885 600.58361012 137.78680127 600.59199162 136.18847656 600.60948563 C134.01025967 600.63203398 131.83426131 600.623953 129.65603638 600.60800171 C128.43595949 600.61131186 127.21588261 600.614622 125.95883369 600.61803246 C123 600 123 600 121.17193413 597.63077736 C120.78519587 596.76262083 120.3984576 595.8944643 120 595 C119.5356958 594.10885498 119.0713916 593.21770996 118.59301758 592.29956055 C118.11501709 591.33832275 117.6370166 590.37708496 117.14453125 589.38671875 C116.60884521 588.31220459 116.07315918 587.23769043 115.52124023 586.13061523 C114.95735596 584.99438721 114.39347168 583.85815918 113.8125 582.6875 C112.63286871 580.31768035 111.45318145 577.94788856 110.2734375 575.578125 C109.70592773 574.43666016 109.13841797 573.29519531 108.55371094 572.11914062 C107.30514779 569.61259713 106.05107735 567.1091585 104.7890625 564.609375 C100.82071782 556.74526485 96.98642024 548.8224012 93.1875 540.875 C87.98988117 530.00210338 82.65120874 519.20673027 77.22998047 508.44384766 C75.09136496 504.19463344 72.9675598 499.93802614 70.84228516 495.68212891 C69.26149079 492.51811688 67.67638967 489.35642013 66.08203125 486.19921875 C62.2907034 478.67739158 58.60669461 471.11222947 55 463.5 C51.13678663 455.34830559 47.17429808 447.25653034 43.10986328 439.20361328 C40.41792531 433.85881959 37.74991958 428.50198127 35.07543945 423.1484375 C32.97803659 418.9514428 30.87884905 414.75546064 28.765625 410.56640625 C25.43386465 403.95504309 22.15851586 397.3211502 19 390.625 C18.69674805 389.98763916 18.39349609 389.35027832 18.08105469 388.69360352 C16 384.23743207 16 384.23743207 16 382 C15.01 382 14.02 382 13 382 C12.73058594 382.74507812 12.46117187 383.49015625 12.18359375 384.2578125 C11.0441336 386.89774987 9.87592581 388.66696564 8.0625 390.875 C-2.08611614 403.64464304 -10.85586265 416.86197248 -19 431 C-19.36641602 431.62680664 -19.73283203 432.25361328 -20.11035156 432.89941406 C-24.81625538 440.98058683 -28.21934845 449.2918461 -31.3112793 458.08251953 C-32.01880947 460.0523678 -32.77591237 461.99879282 -33.53515625 463.94921875 C-44.05263517 492.07854585 -41.49539385 527.21882589 -29.65625 554.4609375 C-29.1096875 555.62882813 -28.563125 556.79671875 -28 558 C-27.55333984 558.96728027 -27.55333984 558.96728027 -27.09765625 559.95410156 C-19.96646035 575.27433675 -11.17232633 588.35852984 0 601 C0.61617187 601.72703125 1.23234375 602.4540625 1.8671875 603.203125 C10.0197738 612.79899213 19.07352032 621.26923933 29 629 C29.66386719 629.51949219 30.32773437 630.03898438 31.01171875 630.57421875 C49.46645284 644.6957658 69.598403 657.8438385 91 667 C91 667.99 91 668.98 91 670 C80.55101359 670.27949594 70.10293265 670.49198045 59.65095329 670.62174606 C54.79605882 670.68406797 49.94374262 670.76841293 45.09033203 670.90527344 C40.39570416 671.03680996 35.70353584 671.10764058 31.00720596 671.13852692 C29.22650584 671.1605001 27.44592268 671.20341001 25.66628647 671.26876068 C15.70321754 671.61966942 8.79035596 671.10676668 1.1418457 664.25634766 C-0.46763804 662.71876346 -2.02226896 661.15138104 -3.5486021 659.53136635 C-5.79555804 657.16060867 -8.19201437 654.96073694 -10.57421875 652.7265625 C-12.28603426 651.03347939 -13.99048166 649.33291438 -15.6875 647.625 C-16.58815186 646.72088379 -17.48880371 645.81676758 -18.41674805 644.88525391 C-25.21644187 637.97429125 -31.32526438 630.84803862 -37 623 C-37.68578125 622.09765625 -38.3715625 621.1953125 -39.078125 620.265625 C-54.50259714 599.74014633 -66.21135963 576.82556819 -72.875 552 C-73.07826904 551.2474292 -73.28153809 550.4948584 -73.4909668 549.71948242 C-76.0054568 539.81942673 -76.1865358 529.94777895 -76.18530273 519.77001953 C-76.18748128 517.76721093 -76.20597483 515.76444184 -76.22460938 513.76171875 C-76.24190129 502.06085511 -75.11950752 490.64460264 -71.875 479.375 C-71.66327148 478.63193604 -71.45154297 477.88887207 -71.23339844 477.12329102 C-63.73495427 451.78835783 -51.02957828 429.52371345 -35.0078125 408.68359375 C-32.90498368 405.94195849 -32.90498368 405.94195849 -30.8671875 402.66015625 C-30.25101563 401.78230469 -29.63484375 400.90445312 -29 400 C-28.34 400 -27.68 400 -27 400 C-26.78730469 399.47921875 -26.57460938 398.9584375 -26.35546875 398.421875 C-24.43285737 394.98666159 -21.90003338 392.20255335 -19.3125 389.25 C-18.77447754 388.63108887 -18.23645508 388.01217773 -17.68212891 387.37451172 C-16.61235543 386.14451353 -15.54110076 384.91580179 -14.46826172 383.68847656 C-13.20706805 382.23812482 -11.96311541 380.7728124 -10.72265625 379.3046875 C-10.11292969 378.58539062 -9.50320313 377.86609375 -8.875 377.125 C-8.35679687 376.50882813 -7.83859375 375.89265625 -7.3046875 375.2578125 C-6 374 -6 374 -4 374 C-3.75191086 373.42626648 -3.50382172 372.85253296 -3.24821472 372.26141357 C-1.80788142 369.65193524 -0.14711516 367.91400793 1.97143555 365.81738281 C2.78956223 365.00263489 3.6076889 364.18788696 4.4506073 363.34844971 C5.33702408 362.47549255 6.22344086 361.6025354 7.13671875 360.703125 C8.53183885 359.31595494 9.92695623 357.92878214 11.32191944 356.54145432 C13.27790068 354.5985963 15.23837932 352.66030775 17.19891357 350.7220459 C20.60980742 347.34905243 24.01610753 343.97143834 27.4186554 340.59002686 C29.22785405 338.79297047 31.03971897 336.99859306 32.85466003 335.20733643 C37.26389273 330.83263635 41.5233936 326.39986945 45.56039429 321.67799377 C47.61582317 319.28220107 49.78224004 316.99337712 51.9375 314.6875 C56.18633815 310.05594208 59.86521472 305.20772843 63.40625 300.01953125 C63.9321875 299.35308594 64.458125 298.68664062 65 298 C65.66 298 66.32 298 67 298 C67.21914063 297.35675781 67.43828125 296.71351563 67.6640625 296.05078125 C69.5071892 291.84176968 71.93590145 288.07401098 74.375 284.1875 C92.87985225 254.673745 95.14646241 225.49385776 87.45898438 191.96166992 C87.30751953 191.31431885 87.15605469 190.66696777 87 190 C85.51794437 192.84927797 84.71139681 195.13215767 84.25 198.3125 C80.01928455 220.54002811 66.11158919 242.49766621 51.3828125 259.2578125 C49.03423973 261.87405068 49.03423973 261.87405068 47.3046875 264.3671875 C46.87414062 264.90601563 46.44359375 265.44484375 46 266 C45.34 266 44.68 266 44 266 C43.7628125 266.56203125 43.525625 267.1240625 43.28125 267.703125 C41.71052303 270.51894042 39.78528536 272.47955416 37.5 274.75 C36.7059375 275.54921875 35.911875 276.3484375 35.09375 277.171875 C33 279 33 279 31 279 C30.79890625 279.54527344 30.5978125 280.09054687 30.390625 280.65234375 C28.43450602 283.95466822 25.66575439 286.13874959 22.75 288.5625 C22.13608398 289.07973633 21.52216797 289.59697266 20.88964844 290.12988281 C16.39168324 293.89609973 11.84001908 297.59665804 7.25 301.25 C6.65413086 301.72767822 6.05826172 302.20535645 5.44433594 302.69750977 C1.23838616 306 1.23838616 306 -1 306 C-1 306.66 -1 307.32 -1 308 C-2.5546875 309.26953125 -2.5546875 309.26953125 -4.875 310.8125 C-9.95960564 314.26974252 -14.95824888 317.83007283 -19.9375 321.4375 C-21.12037598 322.29251099 -21.12037598 322.29251099 -22.32714844 323.16479492 C-26.43718213 326.13709268 -30.53555287 329.12442231 -34.625 332.125 C-39.60806327 335.75943606 -44.69522177 339.23253447 -49.79272461 342.70336914 C-55.31682039 346.48301362 -60.71310862 350.41916033 -66.04003906 354.47192383 C-69.23907824 356.86852992 -72.19791505 358.73263835 -76 360 C-76 360.66 -76 361.32 -76 362 C-77.67789874 363.35759933 -79.41943088 364.63711805 -81.1875 365.875 C-84.11469137 367.93618161 -86.9752749 369.97961326 -89.73828125 372.2578125 C-92 374 -92 374 -94 374 C-94 374.66 -94 375.32 -94 376 C-96.02885724 377.69730486 -98.07117766 379.29314716 -100.1875 380.875 C-106.48402183 385.69121905 -112.3202244 390.84017315 -118.0859375 396.2734375 C-120.51034185 398.54184801 -122.97137211 400.72519277 -125.5 402.875 C-128.7147204 405.64677354 -131.28779472 408.73144491 -134 412 C-135.12979377 412.9771913 -136.2767732 413.93476061 -137.4375 414.875 C-140.84745621 417.67444003 -143.25670936 420.83036383 -145.73828125 424.4609375 C-146.15464844 424.96882813 -146.57101562 425.47671875 -147 426 C-147.66 426 -148.32 426 -149 426 C-149.27384521 426.58539551 -149.54769043 427.17079102 -149.82983398 427.77392578 C-150.9671694 429.93754446 -152.20773025 431.7042703 -153.72265625 433.6171875 C-154.25673096 434.29918213 -154.79080566 434.98117676 -155.34106445 435.68383789 C-155.90913818 436.40692139 -156.47721191 437.13000488 -157.0625 437.875 C-169.99655256 454.61203147 -179.61146575 472.1792614 -187 492 C-187.55300781 493.4540625 -187.55300781 493.4540625 -188.1171875 494.9375 C-189.19112872 497.93454525 -190.11765188 500.94095013 -191 504 C-191.56074219 505.88525391 -191.56074219 505.88525391 -192.1328125 507.80859375 C-198.25502478 530.66625609 -196.61566581 556.50867348 -190 579 C-189.80825195 579.66837891 -189.61650391 580.33675781 -189.41894531 581.02539062 C-188.03213785 585.76933308 -186.42898763 590.15681742 -184.1875 594.5625 C-183 597 -183 597 -184 600 C-217.66 600 -251.32 600 -286 600 C-285.22999575 595.37997448 -284.62432344 592.70826513 -282.7421875 588.65625 C-282.05672852 587.16919556 -282.05672852 587.16919556 -281.35742188 585.65209961 C-280.62362305 584.0918103 -280.62362305 584.0918103 -279.875 582.5 C-279.37291016 581.41920166 -278.87082031 580.33840332 -278.35351562 579.22485352 C-275.29234986 572.66472012 -272.14045116 566.16372061 -268.859375 559.7109375 C-264.905799 551.88743576 -261.20896823 543.93321091 -257.43945312 536.02001953 C-255.13137103 531.17758813 -252.81544897 526.33891201 -250.5 521.5 C-247.78333321 515.82118159 -245.06739713 510.14202051 -242.35546875 504.4609375 C-237.24209206 493.75301358 -232.10144197 483.05861059 -226.9375 472.375 C-221.66138834 461.45912733 -216.42716867 450.52411451 -211.22412109 439.57324219 C-205.17991224 426.86762564 -199.09040535 414.18351705 -193 401.5 C-189.09973329 393.37712008 -185.2019222 385.25307911 -181.3125 377.125 C-180.63537964 375.70997192 -180.63537964 375.70997192 -179.94458008 374.26635742 C-177.39577663 368.93476656 -174.86144292 363.59660222 -172.33911133 358.25244141 C-169.65163181 352.55842609 -166.9636653 346.87071904 -164.125 341.25 C-161.37801399 335.80828044 -158.74734765 330.31497577 -156.125 324.8125 C-151.45822829 315.02126969 -146.73829775 305.2567337 -142 295.5 C-136.07140076 283.28960764 -130.18607584 271.0596086 -124.34179688 258.80859375 C-121.90216899 253.70206551 -119.45048329 248.60132549 -117 243.5 C-113.64567678 236.51639142 -110.29610186 229.53058212 -106.95727539 222.53955078 C-102.64501395 213.51043237 -98.31229283 204.49143023 -93.95950317 195.48178101 C-93.0638084 193.62770837 -92.16844691 191.77347517 -91.27319336 189.91918945 C-90.67952626 188.68961515 -90.08585765 187.46004158 -89.4921875 186.23046875 C-89.19955521 185.62437271 -88.90692291 185.01827667 -88.60542297 184.39381409 C-87.18904535 181.46066628 -85.77157565 178.5280539 -84.35253906 175.59619141 C-78.79611181 164.11415603 -73.32909378 152.61207604 -68.14672852 140.95605469 C-65.62930757 135.32169091 -62.95422442 129.79126213 -60.16137695 124.2890625 C-53.92213536 111.97311546 -48.05255891 99.46426958 -42.25 86.9375 C-40.15229627 82.4205106 -37.99203951 77.94706422 -35.75 73.5 C-32.69232982 67.43232933 -29.73854958 61.31967054 -26.8125 55.1875 C-26.34835693 54.21482178 -25.88421387 53.24214355 -25.40600586 52.23999023 C-24.4371307 50.20859459 -23.46846658 48.17709828 -22.5 46.14550781 C-15.45366471 31.36930601 -8.39412652 16.60593211 -1 2 C-0.67 1.34 -0.34 0.68 0 0 Z " fill="#B99561" transform="translate(627,285)"/>
<path d="M0 0 C1.8125 0.0625 1.8125 0.0625 4 1 C4.70478556 2.53290858 5.39343255 4.07428009 6.0246582 5.63891602 C8.23202632 10.9824597 10.75252055 16.19458997 13.1875 21.4375 C13.47889862 22.06548492 13.77029724 22.69346985 14.07052612 23.34048462 C17.60195755 30.94391592 21.18077716 38.51473253 24.97802734 45.98974609 C29.63688871 55.17972973 34.02741896 64.50239986 38.46972656 73.79833984 C39.94423125 76.88331981 41.42095369 79.96722715 42.8984375 83.05078125 C46.82096176 91.24047246 50.73663542 99.43297315 54.61010742 107.64599609 C57.47177365 113.71255689 60.35498395 119.76006296 63.375 125.75 C66.83703379 132.61861166 70.15276058 139.55324789 73.46044922 146.49731445 C76.10007468 152.03572698 78.75393037 157.56678292 81.43359375 163.0859375 C82.62265749 165.53633147 83.81148402 167.9868403 85 170.4375 C85.29627289 171.04830414 85.59254578 171.65910828 85.89779663 172.28842163 C90.00546187 180.76610427 93.99087577 189.29217293 97.875 197.875 C100.75455081 204.23687036 103.69184662 210.50791986 107.0625 216.625 C110.79982555 223.43472816 114.00825227 230.43246721 117.14868164 237.53564453 C120.19466182 244.38414789 123.50711392 251.07499956 126.87646484 257.76782227 C130.42041167 264.81310231 133.86529792 271.90702271 137.3125 279 C137.86367996 280.13304062 137.86367996 280.13304062 138.42599487 281.28897095 C143.55341642 291.83792284 148.54880706 302.4330763 153.38989258 313.11694336 C156.11584971 319.11949783 158.9563334 325.04231962 161.94360352 330.91870117 C164.89311099 336.73318801 167.69970518 342.61242066 170.5 348.5 C173.55921658 354.93110691 176.64621319 361.33984252 179.875 367.6875 C183.6047861 375.03690974 187.04769385 382.51759895 190.5 390 C194.19474979 398.00681512 197.91393305 405.9890075 201.90893555 413.85131836 C209.82768473 429.47435485 217.22419402 445.36826757 224.77368164 461.17211914 C228.41519724 468.78975495 232.07890655 476.39658089 235.75 484 C236.18655411 484.90454422 236.18655411 484.90454422 236.63192749 485.82736206 C240.03526359 492.87857763 243.44819031 499.9250051 246.875 506.96484375 C252.94990776 519.45403267 258.95692515 531.9567207 264.64550781 544.62841797 C266.98898924 549.83189122 269.42258185 554.97093699 272 560.0625 C275.18981564 566.37471766 278.34555528 572.70162871 281.4375 579.0625 C281.87513672 579.94365479 282.31277344 580.82480957 282.76367188 581.73266602 C285.09728611 586.56585477 286.59957363 590.63428668 287 596 C283.67466405 593.27379512 282.22442431 589.61913049 280.48828125 585.796875 C280.15636276 585.08202942 279.82444427 584.36718384 279.48246765 583.63067627 C278.41956319 581.3399465 277.36531478 579.04538247 276.3125 576.75 C274.9389387 573.76312616 273.56050995 570.7785886 272.17578125 567.796875 C271.83322296 567.05860474 271.49066467 566.32033447 271.13772583 565.55969238 C268.27374111 559.45023872 265.12902078 553.52862833 261.84838867 547.63378906 C259.94785103 544.06932462 258.52509737 540.35772808 257.05686951 536.59915161 C255.30642017 532.2942841 253.24473837 528.15111703 251.18359375 523.98828125 C250.50404884 522.60424355 250.50404884 522.60424355 249.81077576 521.19224548 C248.85024368 519.23673093 247.88812034 517.28199728 246.92449951 515.32800293 C244.42281777 510.25481457 241.93300748 505.17580081 239.44140625 500.09765625 C238.95788696 499.11304413 238.47436768 498.12843201 237.97619629 497.11398315 C234.57124634 490.17709984 231.19643912 483.22733316 227.875 476.25 C227.46330566 475.38528076 227.05161133 474.52056152 226.62744141 473.62963867 C225.82557637 471.94372789 225.02413347 470.25761626 224.22314453 468.57128906 C221.9300879 463.75083548 219.62156479 458.93780127 217.3125 454.125 C216.82386475 453.10647949 216.33522949 452.08795898 215.83178711 451.03857422 C211.55711263 442.13932385 207.24865726 433.2566094 202.9375 424.375 C195.14130118 408.31248444 187.37850402 392.23501939 179.8125 376.0625 C176.97400417 369.99557356 174.01789658 363.99690226 170.99926758 358.01782227 C168.58371962 353.21564446 166.27190242 348.37160553 164 343.5 C161.55117093 338.25377085 159.04878769 333.04275429 156.4375 327.875 C145.95024675 307.09146426 135.99592882 286.02275301 126 265 C125.62311035 264.21028809 125.2462207 263.42057617 124.85791016 262.60693359 C123.83859588 260.46907166 122.82449944 258.32883215 121.8125 256.1875 C121.26207031 255.02605469 120.71164062 253.86460937 120.14453125 252.66796875 C119 250 119 250 119 248 C118.34 247.67 117.68 247.34 117 247 C116.1484375 244.93359375 116.1484375 244.93359375 115.375 242.4375 C115.11460937 241.61121094 114.85421875 240.78492188 114.5859375 239.93359375 C114.39257812 239.29550781 114.19921875 238.65742187 114 238 C113.34 238 112.68 238 112 238 C108.03920595 228.44410367 108.03920595 228.44410367 106.875 223.9375 C106.58625 222.968125 106.2975 221.99875 106 221 C105.34 220.67 104.68 220.34 104 220 C103.05444336 218.43359375 103.05444336 218.43359375 102.08984375 216.4375 C101.73986328 215.72335937 101.38988281 215.00921875 101.02929688 214.2734375 C100.66900391 213.52320313 100.30871094 212.77296875 99.9375 212 C97.91471998 207.18067029 97.91471998 207.18067029 95 203 C95.14183696 204.75032844 95.28863429 206.50025534 95.4375 208.25 C95.55931641 209.71179688 95.55931641 209.71179688 95.68359375 211.203125 C95.92237985 213.89937139 95.92237985 213.89937139 96.53515625 216.06640625 C97.08135566 218.33841221 97.06168311 220.35510742 97 222.6875 C96.96236969 224.12450738 96.95337141 225.56325645 97 227 C97.33 227.33 97.66 227.66 98 228 C98.12931246 230.47197303 98.18974189 232.90220007 98.1875 235.375 C98.18814453 236.09365234 98.18878906 236.81230469 98.18945312 237.55273438 C98.13089551 243.52028738 97.37940468 249.18679458 96 255 C95.34 254.34 94.68 253.68 94 253 C93.731875 253.66902344 93.46375 254.33804688 93.1875 255.02734375 C90.59294299 261.38571537 87.83627879 267.65007572 84.9375 273.875 C84.44540039 274.94415649 84.44540039 274.94415649 83.94335938 276.03491211 C81.9440219 280.28949028 79.70086354 284.13459408 77 288 C76.51917969 288.73863281 76.03835938 289.47726562 75.54296875 290.23828125 C69.11323061 300.07744826 61.60783953 309.05830165 54 318 C53.55474976 318.53169296 53.10949951 319.06338593 52.65075684 319.6111908 C47.5035219 325.64069634 41.90961216 331.20651889 36.28807068 336.78709412 C34.49367665 338.56855248 32.70257591 340.35326638 30.91223145 342.13879395 C26.46792631 346.5698343 22.01815537 350.9953724 17.56854248 355.42108154 C13.79723298 359.17255651 10.02805022 362.92614469 6.26158142 366.68247986 C4.50950204 368.4281471 2.75440523 370.17073952 0.99914551 371.91320801 C-4.54674954 377.43363277 -9.96222263 383.00483641 -15 389 C-15.91219586 390.05647731 -16.8249392 391.11248219 -17.73828125 392.16796875 C-42.40593869 421.10286891 -62.12279504 452.62913228 -71 490 C-71.33 490 -71.66 490 -72 490 C-72.40737447 482.74911967 -71.48294181 476.88729891 -69.0625 470.0625 C-68.74966064 469.15862549 -68.43682129 468.25475098 -68.11450195 467.32348633 C-60.44812919 445.79946449 -48.68369275 427.32501285 -35.36865234 408.91357422 C-34.43150291 407.60330357 -33.51063732 406.28127531 -32.60400391 404.94970703 C-31.44967875 403.26658016 -30.23030832 401.62841152 -29 400 C-28.34 400 -27.68 400 -27 400 C-26.78730469 399.47921875 -26.57460938 398.9584375 -26.35546875 398.421875 C-24.43285737 394.98666159 -21.90003338 392.20255335 -19.3125 389.25 C-18.77447754 388.63108887 -18.23645508 388.01217773 -17.68212891 387.37451172 C-16.61235543 386.14451353 -15.54110076 384.91580179 -14.46826172 383.68847656 C-13.20706805 382.23812482 -11.96311541 380.7728124 -10.72265625 379.3046875 C-9.80806641 378.22574219 -9.80806641 378.22574219 -8.875 377.125 C-8.35679687 376.50882813 -7.83859375 375.89265625 -7.3046875 375.2578125 C-6 374 -6 374 -4 374 C-3.75191086 373.42626648 -3.50382172 372.85253296 -3.24821472 372.26141357 C-1.80788142 369.65193524 -0.14711516 367.91400793 1.97143555 365.81738281 C2.78956223 365.00263489 3.6076889 364.18788696 4.4506073 363.34844971 C5.33702408 362.47549255 6.22344086 361.6025354 7.13671875 360.703125 C8.53183885 359.31595494 9.92695623 357.92878214 11.32191944 356.54145432 C13.27790068 354.5985963 15.23837932 352.66030775 17.19891357 350.7220459 C20.60980742 347.34905243 24.01610753 343.97143834 27.4186554 340.59002686 C29.22785405 338.79297047 31.03971897 336.99859306 32.85466003 335.20733643 C37.26389273 330.83263635 41.5233936 326.39986945 45.56039429 321.67799377 C47.61582317 319.28220107 49.78224004 316.99337712 51.9375 314.6875 C56.18633815 310.05594208 59.86521472 305.20772843 63.40625 300.01953125 C63.9321875 299.35308594 64.458125 298.68664062 65 298 C65.66 298 66.32 298 67 298 C67.21914063 297.35675781 67.43828125 296.71351563 67.6640625 296.05078125 C69.5071892 291.84176968 71.93590145 288.07401098 74.375 284.1875 C92.87985225 254.673745 95.14646241 225.49385776 87.45898438 191.96166992 C87.23178711 190.99064331 87.23178711 190.99064331 87 190 C85.51794437 192.84927797 84.71139681 195.13215767 84.25 198.3125 C80.01928455 220.54002811 66.11158919 242.49766621 51.3828125 259.2578125 C49.03423973 261.87405068 49.03423973 261.87405068 47.3046875 264.3671875 C46.65886719 265.17542969 46.65886719 265.17542969 46 266 C45.34 266 44.68 266 44 266 C43.690625 266.86625 43.690625 266.86625 43.375 267.75 C41.50249112 270.81410544 39.03041481 272.15539968 36 274 C35.34 273.67 34.68 273.34 34 273 C34.77085937 272.25234375 35.54171875 271.5046875 36.3359375 270.734375 C37.34922356 269.73985349 38.36222975 268.74504677 39.375 267.75 C39.88289062 267.25886719 40.39078125 266.76773437 40.9140625 266.26171875 C43.54663143 263.66378888 45.49517779 261.37444981 47 258 C48.33333333 257 49.66666667 256 51 255 C51.69748583 253.68252676 52.36959957 252.35085807 53 251 C53.66 250.67 54.32 250.34 55 250 C55.33 249.01 55.66 248.02 56 247 C56.598125 246.443125 57.19625 245.88625 57.8125 245.3125 C60.71619001 242.24288485 62.25857494 238.81631449 64 235 C64.66 235 65.32 235 66 235 C66.33 233.02 66.66 231.04 67 229 C66.34 229.33 65.68 229.66 65 230 C66.32787786 226.01636642 68.00985195 223.89369166 71 221 C71.33 220.01 71.66 219.02 72 218 C72.66 218 73.32 218 74 218 C74.17015625 217.40574219 74.3403125 216.81148437 74.515625 216.19921875 C75.88104394 211.52919546 77.36854322 206.97608175 79.125 202.4375 C80.65129022 198.32114153 81.47049268 194.63625797 81.77734375 190.26953125 C82.114863 186.8292035 82.96813732 183.51660316 83.79296875 180.1640625 C84.25820905 177.70327765 84.25820905 177.70327765 82 175 C82 173.68 82 172.36 82 171 C81.34 171 80.68 171 80 171 C79.15973604 169.23244474 78.32801278 167.46082737 77.5 165.6875 C77.0359375 164.70136719 76.571875 163.71523438 76.09375 162.69921875 C75 160 75 160 75 157 C74.34 156.67 73.68 156.34 73 156 C72.03515625 154.14453125 72.03515625 154.14453125 71.0625 151.8125 C69.51220669 148.12819969 67.7985102 144.57004276 66 141 C59.53160361 127.58589553 59.53160361 127.58589553 58 121 C57.34 121 56.68 121 56 121 C55.79246094 120.44054687 55.58492187 119.88109375 55.37109375 119.3046875 C53.41790829 114.22150192 51.22181579 109.35313031 48.75 104.5 C45.8637109 98.81507483 43.16202622 93.0716378 40.5625 87.25 C40.03124512 86.06954102 40.03124512 86.06954102 39.48925781 84.86523438 C37 79.24528463 37 79.24528463 37 77 C36.34 77 35.68 77 35 77 C34.61328125 76.09378906 34.2265625 75.18757813 33.828125 74.25390625 C33.30211695 73.02342313 32.77607335 71.79295521 32.25 70.5625 C31.73953125 69.36753906 31.2290625 68.17257812 30.703125 66.94140625 C27.51870656 59.54336683 24.2024971 52.21423113 20.75 44.9375 C20.36303955 44.12112061 19.9760791 43.30474121 19.57739258 42.46362305 C16.40852385 35.80506104 13.14498047 29.19721411 9.82421875 22.61328125 C9.5307959 22.02885254 9.23737305 21.44442383 8.93505859 20.84228516 C8.26076841 19.51377504 7.57472122 18.19120923 6.88134766 16.87255859 C6.51444824 16.16566895 6.14754883 15.4587793 5.76953125 14.73046875 C5.43155518 14.08875732 5.0935791 13.4470459 4.74536133 12.78588867 C4 11 4 11 4 8 C-2.01443515 10.40577406 -3.47326618 15.48441585 -6 21 C-7.03543829 23.06563386 -8.0771955 25.1281114 -9.125 27.1875 C-11.23656738 31.40526181 -13.15150504 35.66005531 -15 40 C-15.72196448 41.44113065 -16.45208066 42.87818878 -17.1875 44.3125 C-20.08639132 50.0307399 -22.65528307 55.88735517 -25.2331543 61.75512695 C-25.56226807 62.50366943 -25.89138184 63.25221191 -26.23046875 64.0234375 C-26.52332764 64.69294434 -26.81618652 65.36245117 -27.11791992 66.05224609 C-28.02851871 68.06297323 -29.00183936 70.03142606 -30 72 C-30.49757813 72.99515625 -30.99515625 73.9903125 -31.5078125 75.015625 C-33.00520833 78.01041667 -34.50260417 81.00520833 -36 84 C-37.32 83.34 -38.64 82.68 -40 82 C-39.55011719 81.11183594 -39.10023438 80.22367187 -38.63671875 79.30859375 C-33.0938603 68.31839269 -27.77770028 57.22511895 -22.48388672 46.11328125 C-15.44561794 31.34658111 -8.38867396 16.59516145 -1 2 C-0.67 1.34 -0.34 0.68 0 0 Z " fill="#F5D197" transform="translate(627,285)"/>
<path d="M0 0 C0.33 0 0.66 0 1 0 C0.53805884 5.83729308 -0.71812159 10.21030832 -3.51953125 15.3828125 C-4.25070027 16.7874679 -4.98063582 18.1927659 -5.70947266 19.59863281 C-6.27701263 20.68198914 -6.27701263 20.68198914 -6.85601807 21.78723145 C-8.7480424 25.44691507 -10.53413038 29.15686305 -12.32421875 32.8671875 C-13.05003458 34.36462969 -13.77594635 35.86202538 -14.50195312 37.359375 C-15.23055018 38.86454392 -15.95906539 40.36975246 -16.6875 41.875 C-18.14897291 44.89360119 -19.61116673 47.91185136 -21.07421875 50.9296875 C-21.4196875 51.64249878 -21.76515625 52.35531006 -22.12109375 53.08972168 C-24.37325174 57.72935228 -26.65810203 62.35097368 -28.9909668 66.95068359 C-30.44906223 69.91203203 -31.76532218 72.93202301 -33.09375 75.953125 C-36.55882353 83.77941176 -36.55882353 83.77941176 -39 85 C-39.35695499 86.66176774 -39.68618716 88.32954785 -40 90 C-40.69937605 91.67556738 -41.45633143 93.32783482 -42.2578125 94.95703125 C-42.71534912 95.89748291 -43.17288574 96.83793457 -43.64428711 97.80688477 C-44.37723999 99.29466431 -44.37723999 99.29466431 -45.125 100.8125 C-49.12787553 109.03432458 -52.94343863 117.28389256 -56.46484375 125.72265625 C-58 129 -58 129 -60.06640625 132.05859375 C-62.03061181 135.04656706 -62.91980724 137.61057625 -64 141 C-65.20962003 143.64630908 -66.54251264 146.22630514 -67.875 148.8125 C-70.45554946 153.8899431 -72.96883174 158.96456013 -75.2109375 164.203125 C-77.35857083 169.09377516 -80.04654835 173.69165574 -82.66015625 178.34375 C-83.82984601 180.66266847 -84.39480751 182.51144848 -85 185 C-85.87742425 186.89368146 -86.7990242 188.76716583 -87.75 190.625 C-88.23984375 191.58664062 -88.7296875 192.54828125 -89.234375 193.5390625 C-89.81703125 194.68117188 -90.3996875 195.82328125 -91 197 C-94.75695647 204.38079243 -98.29780321 211.84716387 -101.75 219.375 C-102.24371094 220.44105469 -102.73742187 221.50710938 -103.24609375 222.60546875 C-103.95185547 224.14267578 -103.95185547 224.14267578 -104.671875 225.7109375 C-105.0956543 226.63181152 -105.51943359 227.55268555 -105.95605469 228.50146484 C-107.1554675 231.19622851 -107.1554675 231.19622851 -108 235 C-76.65 234.67 -45.3 234.34 -13 234 C-14.56476184 227.66276465 -14.56476184 227.66276465 -16.1875 224.6875 C-16.455625 224.130625 -16.72375 223.57375 -17 223 C-16.67 222.34 -16.34 221.68 -16 221 C-16.66 220.67 -17.32 220.34 -18 220 C-20.17545909 214.95293491 -21.43215818 210.4512815 -22 205 C-21.01 205 -20.02 205 -19 205 C-18.68546875 206.02738281 -18.3709375 207.05476562 -18.046875 208.11328125 C-15.8010267 215.40082983 -13.49999752 222.63115408 -10.796875 229.765625 C-10.05675725 231.84085713 -9.40268931 233.833148 -9 236 C-10.96428367 237.96428367 -13.98297163 237.12023917 -16.59747314 237.12442017 C-17.5476532 237.12082489 -18.49783325 237.11722961 -19.47680664 237.11352539 C-20.96932198 237.11374443 -20.96932198 237.11374443 -22.49198914 237.1139679 C-25.79806662 237.11326831 -29.10408854 237.10547379 -32.41015625 237.09765625 C-34.69559193 237.09579223 -36.98102801 237.09436825 -39.26646423 237.09336853 C-45.29498387 237.08954207 -51.32347959 237.0797107 -57.35198975 237.06866455 C-63.49832841 237.05845317 -69.64467093 237.0538715 -75.79101562 237.04882812 C-87.86068762 237.03808854 -99.93034182 237.0210106 -112 237 C-111.36113948 232.85497328 -110.51184329 229.46610873 -108.7421875 225.65625 C-108.28521484 224.66488037 -107.82824219 223.67351074 -107.35742188 222.65209961 C-106.86822266 221.61190674 -106.37902344 220.57171387 -105.875 219.5 C-105.37291016 218.41920166 -104.87082031 217.33840332 -104.35351562 216.22485352 C-101.29234986 209.66472012 -98.14045116 203.16372061 -94.859375 196.7109375 C-90.905799 188.88743576 -87.20896823 180.93321091 -83.43945312 173.02001953 C-81.13137103 168.17758813 -78.81544897 163.33891201 -76.5 158.5 C-73.78333321 152.82118159 -71.06739713 147.14202051 -68.35546875 141.4609375 C-63.24209206 130.75301358 -58.10144197 120.05861059 -52.9375 109.375 C-47.66138834 98.45912733 -42.42716867 87.52411451 -37.22412109 76.57324219 C-30.68506649 62.82740343 -24.09705687 49.10473769 -17.50292969 35.38525391 C-14.94739338 30.0663666 -12.40009989 24.74376524 -9.8671875 19.4140625 C-9.11308594 17.82948242 -9.11308594 17.82948242 -8.34375 16.21289062 C-7.38607937 14.19949001 -6.4302601 12.18520745 -5.4765625 10.16992188 C-5.04859375 9.27080078 -4.620625 8.37167969 -4.1796875 7.4453125 C-3.80569824 6.65656738 -3.43170898 5.86782227 -3.04638672 5.05517578 C-2 3 -2 3 0 0 Z " fill="#A37548" transform="translate(453,648)"/>
<path d="M0 0 C2.12939844 2.69370239 3.75156491 5.31138895 5.19921875 8.421875 C5.59939209 9.27378418 5.99956543 10.12569336 6.41186523 11.00341797 C6.83282471 11.90979004 7.25378418 12.81616211 7.6875 13.75 C8.58729104 15.66465073 9.48834359 17.5787091 10.390625 19.4921875 C10.83470703 20.43416992 11.27878906 21.37615234 11.73632812 22.34667969 C13.42006603 25.88200881 15.16855768 29.38172988 16.9375 32.875 C22.13137467 43.1661745 27.04552272 53.59214511 32 64 C33.72744313 67.62582443 35.4567009 71.25077639 37.1875 74.875 C37.62739258 75.79667969 38.06728516 76.71835937 38.52050781 77.66796875 C41.29052669 83.46035581 44.08569348 89.23999882 46.8984375 95.01171875 C48.28680105 97.86181239 49.67486504 100.71205156 51.0625 103.5625 C51.4079184 104.27201813 51.75333679 104.98153625 52.10922241 105.71255493 C56.73674289 115.22737365 61.2773232 124.77064369 65.55493164 134.44946289 C68.14323145 140.26903145 70.95293582 145.95968918 73.81478882 151.6479187 C77.65903429 159.29191427 81.39449368 166.98751679 85.125 174.6875 C85.86594515 176.21574943 86.60691235 177.74398816 87.34790039 179.2722168 C88.84632645 182.36314241 90.34400232 185.45443025 91.84130859 188.54589844 C93.53560913 192.04327921 95.2336769 195.53880922 96.93356323 199.03347778 C102.97790697 211.462823 108.92980852 223.92085966 114.59545898 236.52832031 C116.9566378 241.76450961 119.40577282 246.93787549 122 252.0625 C125.18982262 258.37471408 128.34555535 264.70162884 131.4375 271.0625 C131.87513672 271.94365479 132.31277344 272.82480957 132.76367188 273.73266602 C135.09728611 278.56585477 136.59957363 282.63428668 137 288 C133.67466405 285.27379512 132.22442431 281.61913049 130.48828125 277.796875 C130.15636276 277.08202942 129.82444427 276.36718384 129.48246765 275.63067627 C128.41956319 273.3399465 127.36531478 271.04538247 126.3125 268.75 C124.9389387 265.76312616 123.56050995 262.7785886 122.17578125 259.796875 C121.83322296 259.05860474 121.49066467 258.32033447 121.13772583 257.55969238 C118.27374111 251.45023872 115.12902078 245.52862833 111.84838867 239.63378906 C109.94785103 236.06932462 108.52509737 232.35772808 107.05686951 228.59915161 C105.30642017 224.2942841 103.24473837 220.15111703 101.18359375 215.98828125 C100.73056381 215.06558945 100.27753387 214.14289764 99.81077576 213.19224548 C98.85024368 211.23673093 97.88812034 209.28199728 96.92449951 207.32800293 C94.42281777 202.25481457 91.93300748 197.17580081 89.44140625 192.09765625 C88.95788696 191.11304413 88.47436768 190.12843201 87.97619629 189.11398315 C84.57124634 182.17709984 81.19643912 175.22733316 77.875 168.25 C77.2574585 166.95292114 77.2574585 166.95292114 76.62744141 165.62963867 C75.82557637 163.94372789 75.02413347 162.25761626 74.22314453 160.57128906 C71.9300879 155.75083548 69.62156479 150.93780127 67.3125 146.125 C66.82386475 145.10647949 66.33522949 144.08795898 65.83178711 143.03857422 C61.55711263 134.13932385 57.24865726 125.2566094 52.9375 116.375 C45.14130118 100.31248444 37.37850402 84.23501939 29.8125 68.0625 C26.97400417 61.99557356 24.01789658 55.99690226 20.99926758 50.01782227 C18.58372184 45.21564889 16.27174627 40.37167686 14 35.5 C9.63368056 26.1389819 5.11593861 16.83542967 0.25 7.72265625 C-1.18492502 4.59721019 -1.04151157 3.21921759 0 0 Z " fill="#EEC98B" transform="translate(777,593)"/>
<path d="M0 0 C1.8125 0.0625 1.8125 0.0625 4 1 C4.70478556 2.53290858 5.39343255 4.07428009 6.0246582 5.63891602 C8.23202632 10.9824597 10.75252055 16.19458997 13.1875 21.4375 C13.62459793 22.37947739 13.62459793 22.37947739 14.07052612 23.34048462 C17.60195755 30.94391592 21.18077716 38.51473253 24.97802734 45.98974609 C29.63688871 55.17972973 34.02741896 64.50239986 38.46972656 73.79833984 C39.94423125 76.88331981 41.42095369 79.96722715 42.8984375 83.05078125 C46.8210404 91.24063666 50.73676439 99.43331457 54.61035156 107.64648438 C58.01516195 114.8645657 61.49723318 122.03107517 65.09375 129.15625 C69.20021746 137.36918493 73.07338459 145.70004984 77 154 C76.01 154.66 75.02 155.32 74 156 C71.8549618 153.8549618 70.99806185 151.83517124 69.87890625 149.046875 C68.70140945 146.3046158 67.34114045 143.66584536 66 141 C59.53160361 127.58589553 59.53160361 127.58589553 58 121 C57.34 121 56.68 121 56 121 C55.79246094 120.44054687 55.58492187 119.88109375 55.37109375 119.3046875 C53.41790829 114.22150192 51.22181579 109.35313031 48.75 104.5 C45.8637109 98.81507483 43.16202622 93.0716378 40.5625 87.25 C40.03124512 86.06954102 40.03124512 86.06954102 39.48925781 84.86523438 C37 79.24528463 37 79.24528463 37 77 C36.34 77 35.68 77 35 77 C34.61328125 76.09378906 34.2265625 75.18757813 33.828125 74.25390625 C33.30211695 73.02342313 32.77607335 71.79295521 32.25 70.5625 C31.73953125 69.36753906 31.2290625 68.17257812 30.703125 66.94140625 C27.51870656 59.54336683 24.2024971 52.21423113 20.75 44.9375 C20.36303955 44.12112061 19.9760791 43.30474121 19.57739258 42.46362305 C16.40852385 35.80506104 13.14498047 29.19721411 9.82421875 22.61328125 C9.5307959 22.02885254 9.23737305 21.44442383 8.93505859 20.84228516 C8.26076841 19.51377504 7.57472122 18.19120923 6.88134766 16.87255859 C6.51444824 16.16566895 6.14754883 15.4587793 5.76953125 14.73046875 C5.43155518 14.08875732 5.0935791 13.4470459 4.74536133 12.78588867 C4 11 4 11 4 8 C-2.01443515 10.40577406 -3.47326618 15.48441585 -6 21 C-7.03543829 23.06563386 -8.0771955 25.1281114 -9.125 27.1875 C-11.23656738 31.40526181 -13.15150504 35.66005531 -15 40 C-15.72196448 41.44113065 -16.45208066 42.87818878 -17.1875 44.3125 C-20.08639132 50.0307399 -22.65528307 55.88735517 -25.2331543 61.75512695 C-25.56226807 62.50366943 -25.89138184 63.25221191 -26.23046875 64.0234375 C-26.52332764 64.69294434 -26.81618652 65.36245117 -27.11791992 66.05224609 C-28.02851871 68.06297323 -29.00183936 70.03142606 -30 72 C-30.49757813 72.99515625 -30.99515625 73.9903125 -31.5078125 75.015625 C-33.00520833 78.01041667 -34.50260417 81.00520833 -36 84 C-37.32 83.34 -38.64 82.68 -40 82 C-39.55011719 81.11183594 -39.10023438 80.22367187 -38.63671875 79.30859375 C-33.0938603 68.31839269 -27.77770028 57.22511895 -22.48388672 46.11328125 C-15.44561794 31.34658111 -8.38867396 16.59516145 -1 2 C-0.67 1.34 -0.34 0.68 0 0 Z " fill="#FBE2A7" transform="translate(627,285)"/>
<path d="M0 0 C0.99 0.495 0.99 0.495 2 1 C1.51294378 5.36232961 -1.34444932 8.09230015 -4.125 11.25 C-4.81722656 12.05244141 -4.81722656 12.05244141 -5.5234375 12.87109375 C-6.47077991 13.96678374 -7.42282841 15.05842252 -8.37954712 16.14593506 C-9.39303925 17.30553695 -10.39836367 18.47238781 -11.39120483 19.64971924 C-16.51985019 25.67035215 -22.1038549 31.21988781 -27.71192932 36.78709412 C-29.50632335 38.56855248 -31.29742409 40.35326638 -33.08776855 42.13879395 C-37.53207369 46.5698343 -41.98184463 50.9953724 -46.43145752 55.42108154 C-50.20276702 59.17255651 -53.97194978 62.92614469 -57.73841858 66.68247986 C-59.49049796 68.4281471 -61.24559477 70.17073952 -63.00085449 71.91320801 C-68.54674954 77.43363277 -73.96222263 83.00483641 -79 89 C-79.91219586 90.05647731 -80.8249392 91.11248219 -81.73828125 92.16796875 C-106.40593869 121.10286891 -126.12279504 152.62913228 -135 190 C-135.33 190 -135.66 190 -136 190 C-136.40737447 182.74911967 -135.48294181 176.88729891 -133.0625 170.0625 C-132.74966064 169.15862549 -132.43682129 168.25475098 -132.11450195 167.32348633 C-124.44812919 145.79946449 -112.68369275 127.32501285 -99.36865234 108.91357422 C-98.43150291 107.60330357 -97.51063732 106.28127531 -96.60400391 104.94970703 C-95.44967875 103.26658016 -94.23030832 101.62841152 -93 100 C-92.34 100 -91.68 100 -91 100 C-90.78730469 99.47921875 -90.57460938 98.9584375 -90.35546875 98.421875 C-88.43285737 94.98666159 -85.90003338 92.20255335 -83.3125 89.25 C-82.77447754 88.63108887 -82.23645508 88.01217773 -81.68212891 87.37451172 C-80.61235543 86.14451353 -79.54110076 84.91580179 -78.46826172 83.68847656 C-77.20706805 82.23812482 -75.96311541 80.7728124 -74.72265625 79.3046875 C-73.80806641 78.22574219 -73.80806641 78.22574219 -72.875 77.125 C-72.35679687 76.50882813 -71.83859375 75.89265625 -71.3046875 75.2578125 C-70 74 -70 74 -68 74 C-67.75191086 73.42626648 -67.50382172 72.85253296 -67.24821472 72.26141357 C-65.80788142 69.65193524 -64.14711516 67.91400793 -62.02856445 65.81738281 C-61.21043777 65.00263489 -60.3923111 64.18788696 -59.5493927 63.34844971 C-58.66297592 62.47549255 -57.77655914 61.6025354 -56.86328125 60.703125 C-55.46816115 59.31595494 -54.07304377 57.92878214 -52.67808056 56.54145432 C-50.72209932 54.5985963 -48.76162068 52.66030775 -46.80108643 50.7220459 C-43.39019258 47.34905243 -39.98389247 43.97143834 -36.5813446 40.59002686 C-34.77214595 38.79297047 -32.96028103 36.99859306 -31.14533997 35.20733643 C-26.73798901 30.83450335 -22.47957817 26.40362065 -18.44303894 21.68486023 C-16.35915603 19.25176481 -14.17563525 16.91347428 -12 14.5625 C-7.73507582 9.89325579 -3.77929526 5.0682602 0 0 Z " fill="#E2BC7F" transform="translate(691,585)"/>
<path d="M0 0 C0.99 0.33 1.98 0.66 3 1 C2.37954537 5.23322844 0.89476441 8.52290295 -1.0625 12.3125 C-1.61035156 13.38113281 -2.15820312 14.44976562 -2.72265625 15.55078125 C-3.14417969 16.35902344 -3.56570313 17.16726563 -4 18 C-4.66 18 -5.32 18 -6 18 C-6.0928125 19.4540625 -6.0928125 19.4540625 -6.1875 20.9375 C-6.77111868 25.12432965 -8.61645265 28.21480407 -10.7421875 31.81640625 C-12.44119771 34.76593019 -13.67986457 37.86467836 -15 41 C-18.24708282 47.82129711 -21.85498407 54.43030853 -25.546875 61.01953125 C-26.8819145 63.75779776 -27.57879203 66.00166434 -28 69 C-28.66 69 -29.32 69 -30 69 C-30.25201172 69.8262085 -30.50402344 70.65241699 -30.76367188 71.50366211 C-32.16959762 75.47962234 -33.91548783 79.16543484 -35.78125 82.94140625 C-36.15142242 83.69842834 -36.52159485 84.45545044 -36.90298462 85.2354126 C-38.09872527 87.67938937 -39.2994056 90.12090457 -40.5 92.5625 C-42.13443572 95.90024838 -43.76632923 99.23923805 -45.3984375 102.578125 C-45.79819794 103.39501297 -46.19795837 104.21190094 -46.60983276 105.05354309 C-51.14833014 114.33340354 -55.58969929 123.65858418 -60 133 C-62.35680378 125.92958865 -56.28126873 117.06800771 -53.1875 110.75 C-52.71465576 109.77200439 -52.24181152 108.79400879 -51.75463867 107.78637695 C-50.17515657 104.52160402 -48.58801975 101.26062797 -47 98 C-44.59990747 93.06456279 -42.20468801 88.12677281 -39.8125 83.1875 C-39.51175568 82.56714874 -39.21101135 81.94679749 -38.90115356 81.30764771 C-35.01304222 73.28082025 -31.2528756 65.21422252 -27.68798828 57.03857422 C-25.36319166 51.73454761 -22.83673189 46.55844311 -20.21386719 41.39624023 C-17.17064495 35.39318182 -14.26720795 29.32705077 -11.375 23.25 C-7.66438742 15.45733196 -3.91956286 7.69028155 0 0 Z " fill="#E8C383" transform="translate(587,368)"/>
<path d="M0 0 C0.66 0.99 1.32 1.98 2 3 C1.34 3 0.68 3 0 3 C-0.26941406 3.74507812 -0.53882813 4.49015625 -0.81640625 5.2578125 C-1.9558664 7.89774987 -3.12407419 9.66696564 -4.9375 11.875 C-15.08611614 24.64464304 -23.85586265 37.86197248 -32 52 C-32.36641602 52.62680664 -32.73283203 53.25361328 -33.11035156 53.89941406 C-37.81625076 61.98057889 -41.21901049 70.2917668 -44.3112793 79.08227539 C-45.01915454 81.0533353 -45.77602221 83.00130544 -46.53515625 84.953125 C-53.41608152 103.36082327 -52.45203076 122.68785496 -52 142 C-52.66 142 -53.32 142 -54 142 C-54.495 142.99 -54.495 142.99 -55 144 C-63.44221437 116.02716228 -51.27831376 80.76808722 -38.28125 56.15234375 C-27.36243356 36.05841866 -14.28767143 17.80948223 0 0 Z " fill="#CBA369" transform="translate(640,664)"/>
<path d="M0 0 C5.64986828 4.09892405 10.98778484 8.46620805 16.25463867 13.0402832 C19.6813131 15.98813476 23.1869395 18.5535251 27 21 C28.31805272 21.86145247 29.63573631 22.72346989 30.953125 23.5859375 C41.25728077 30.28798199 41.25728077 30.28798199 51.7578125 36.67578125 C53.3064353 37.590386 54.84231419 38.52679386 56.3671875 39.48046875 C62.98509886 43.59287693 69.87811307 46.85208133 77 50 C77 50.99 77 51.98 77 53 C68.99307242 53.02331468 60.98615937 53.04101156 52.97920609 53.05181217 C49.26005085 53.05699958 45.54091908 53.06402063 41.82177734 53.07543945 C38.22318038 53.08641725 34.62460578 53.09230791 31.02599335 53.09487724 C29.00562298 53.09758587 26.98526143 53.10537345 24.96490479 53.11329651 C17.25693844 53.11375842 9.668706 52.78654681 2 52 C2 51.67 2 51.34 2 51 C2.82327286 50.9845388 2.82327286 50.9845388 3.66317749 50.96876526 C9.47279842 50.85900624 15.2823154 50.74458789 21.09179688 50.62768555 C23.24834987 50.5848688 25.40492535 50.5431672 27.56152344 50.50268555 C40.72821177 50.25466188 53.85761422 49.85129903 67 49 C65.85934082 48.4119458 64.71868164 47.8238916 63.54345703 47.21801758 C49.30345816 39.85822704 35.77120161 31.71677298 23 22 C22.26910156 21.45085938 21.53820312 20.90171875 20.78515625 20.3359375 C16.1074079 16.76629952 11.57357175 13.02658151 7.0625 9.25 C6.49418457 8.77780029 5.92586914 8.30560059 5.34033203 7.8190918 C2.78649521 5.66262983 0.86781424 3.80172137 -1 1 C-0.67 0.67 -0.34 0.34 0 0 Z " fill="#CAA46A" transform="translate(641,902)"/>
<path d="M0 0 C4.00132099 3.62526832 6.42977414 7.21772375 8.71484375 12.125 C9.04713989 12.81608353 9.37943604 13.50716705 9.72180176 14.2191925 C10.80364176 16.47486282 11.87059552 18.7372324 12.9375 21 C13.6911334 22.57884938 14.44578454 24.15721334 15.20141602 25.73510742 C16.73675209 28.94401923 18.26679207 32.15537482 19.79296875 35.36865234 C21.7986378 39.58585954 23.83013454 43.78996299 25.875 47.98828125 C31.60717273 59.76577487 37.22617881 71.5803562 42.59545898 83.52832031 C44.9566378 88.76450961 47.40577282 93.93787549 50 99.0625 C53.18982262 105.37471408 56.34555535 111.70162884 59.4375 118.0625 C59.87513672 118.94365479 60.31277344 119.82480957 60.76367188 120.73266602 C63.09728611 125.56585477 64.59957363 129.63428668 65 135 C61.67466405 132.27379512 60.22442431 128.61913049 58.48828125 124.796875 C58.15636276 124.08202942 57.82444427 123.36718384 57.48246765 122.63067627 C56.41956319 120.3399465 55.36531478 118.04538247 54.3125 115.75 C52.9389387 112.76312616 51.56050995 109.7785886 50.17578125 106.796875 C49.83322296 106.05860474 49.49066467 105.32033447 49.13772583 104.55969238 C46.27374111 98.45023872 43.12902078 92.52862833 39.84838867 86.63378906 C37.94785103 83.06932462 36.52509737 79.35772808 35.05686951 75.59915161 C33.30642093 71.29428596 31.24475919 67.15110505 29.18359375 62.98828125 C28.73006531 62.06468307 28.27653687 61.1410849 27.80926514 60.1894989 C26.84820475 58.23308095 25.88557919 56.27743117 24.92147827 54.32250977 C22.92728044 50.27760219 20.94237969 46.22815857 18.95698547 42.17892456 C17.50923277 39.22647453 16.06038287 36.27456508 14.61132812 33.32275391 C11.45430005 26.88936335 8.30418422 20.45305386 5.1875 14 C4.75687256 13.11997314 4.32624512 12.23994629 3.88256836 11.33325195 C2.07460032 7.57364392 0.5155608 4.19210092 0 0 Z " fill="#DDB673" transform="translate(849,746)"/>
<path d="M0 0 C0.99 0.495 0.99 0.495 2 1 C0.88121617 2.17262904 -0.24523051 3.33795138 -1.375 4.5 C-2.00148438 5.1496875 -2.62796875 5.799375 -3.2734375 6.46875 C-5 8 -5 8 -7 8 C-7.20109375 8.54527344 -7.4021875 9.09054687 -7.609375 9.65234375 C-9.56549398 12.95466822 -12.33424561 15.13874959 -15.25 17.5625 C-15.86391602 18.07973633 -16.47783203 18.59697266 -17.11035156 19.12988281 C-21.60831676 22.89609973 -26.15998092 26.59665804 -30.75 30.25 C-31.34586914 30.72767822 -31.94173828 31.20535645 -32.55566406 31.69750977 C-36.76161384 35 -36.76161384 35 -39 35 C-39 35.66 -39 36.32 -39 37 C-40.5546875 38.26953125 -40.5546875 38.26953125 -42.875 39.8125 C-47.9596011 43.26973944 -52.95836106 46.82992226 -57.9375 50.4375 C-59.11820068 51.29142334 -59.11820068 51.29142334 -60.32275391 52.16259766 C-64.47054434 55.16354951 -68.61280901 58.17194746 -72.75 61.1875 C-79.13339069 65.83811381 -85.56762656 70.41752082 -92 75 C-92.99 74.34 -93.98 73.68 -95 73 C-86.16365743 66.59002379 -77.31433258 60.20328 -68.375 53.9375 C-60.750692 48.58150089 -53.27217136 43.04839094 -45.85498047 37.40966797 C-44.09521122 36.07235451 -42.33109636 34.74096488 -40.56640625 33.41015625 C-29.44093261 24.98136655 -18.90006828 15.99185864 -8.75390625 6.41015625 C-5.94568137 3.95246157 -3.14376846 1.99552902 0 0 Z " fill="#DAB16D" transform="translate(665,556)"/>
<path d="M0 0 C0.495 0.99 0.495 0.99 1 2 C0.06088409 4.7093344 -0.94323685 7.30309194 -2.0625 9.9375 C-2.38613525 10.70731201 -2.70977051 11.47712402 -3.04321289 12.27026367 C-9.38569503 27.11810921 -18.00700731 40.04332829 -28.58203125 52.1875 C-30.95760235 54.86632381 -30.95760235 54.86632381 -32.69921875 57.375 C-33.12847656 57.91125 -33.55773437 58.4475 -34 59 C-34.66 59 -35.32 59 -36 59 C-36.20625 59.5775 -36.4125 60.155 -36.625 60.75 C-38.49750888 63.81410544 -40.96958519 65.15539968 -44 67 C-44.66 66.67 -45.32 66.34 -46 66 C-45.22914063 65.25234375 -44.45828125 64.5046875 -43.6640625 63.734375 C-42.65077644 62.73985349 -41.63777025 61.74504677 -40.625 60.75 C-39.86316406 60.01330078 -39.86316406 60.01330078 -39.0859375 59.26171875 C-36.45336857 56.66378888 -34.50482221 54.37444981 -33 51 C-31.66666667 50 -30.33333333 49 -29 48 C-28.30251417 46.68252676 -27.63040043 45.35085807 -27 44 C-26.01 43.505 -26.01 43.505 -25 43 C-24.67 42.01 -24.34 41.02 -24 40 C-23.401875 39.443125 -22.80375 38.88625 -22.1875 38.3125 C-19.28380999 35.24288485 -17.74142506 31.81631449 -16 28 C-15.34 28 -14.68 28 -14 28 C-13.67 26.02 -13.34 24.04 -13 22 C-13.99 22.495 -13.99 22.495 -15 23 C-13.67212214 19.01636642 -11.99014805 16.89369166 -9 14 C-8.67 13.01 -8.34 12.02 -8 11 C-7.34 11 -6.68 11 -6 11 C-5.81824219 10.28972656 -5.63648438 9.57945312 -5.44921875 8.84765625 C-5.07216797 7.46900391 -5.07216797 7.46900391 -4.6875 6.0625 C-4.44386719 5.14597656 -4.20023438 4.22945313 -3.94921875 3.28515625 C-3.63597656 2.53105469 -3.32273437 1.77695312 -3 1 C-2.01 0.67 -1.02 0.34 0 0 Z " fill="#F4CC90" transform="translate(707,492)"/>
<path d="M0 0 C0.66 0 1.32 0 2 0 C1.38978396 4.03904906 -0.706306 6.66792719 -3.0625 9.9375 C-18.17181857 31.37018115 -28.88605819 54.45665658 -35 80 C-35.33 80 -35.66 80 -36 80 C-36.40737447 72.74911967 -35.48294181 66.88729891 -33.0625 60.0625 C-32.74966064 59.15862549 -32.43682129 58.25475098 -32.11450195 57.32348633 C-25.4655752 38.65603444 -15.82586143 22.16710389 -4.5 6 C-4.07855713 5.39373779 -3.65711426 4.78747559 -3.22290039 4.1628418 C-2.20068129 2.73642625 -1.10661248 1.36198459 0 0 Z " fill="#D4AB6A" transform="translate(591,695)"/>
<path d="M0 0 C3.17349411 2.66457733 4.69713297 6.07109521 6.44140625 9.73828125 C6.76536377 10.40721405 7.08932129 11.07614685 7.4230957 11.76535034 C8.47603821 13.9446811 9.51949992 16.12839572 10.5625 18.3125 C11.28674565 19.81760009 12.01127518 21.32256361 12.73608398 22.82739258 C17.19249804 32.10344703 21.5316379 41.42750433 25.74194336 50.81811523 C28.96099577 57.98494392 32.40089294 65.0163022 36 72 C35.01 71.67 34.02 71.34 33 71 C33 70.34 33 69.68 33 69 C32.34 69 31.68 69 31 69 C23.25007829 53.62087186 15.61599371 38.19929802 8.25341797 22.63037109 C7.02055658 20.04313919 5.76573484 17.46774061 4.50390625 14.89453125 C4.12145752 14.1063501 3.73900879 13.31816895 3.3449707 12.50610352 C2.6362558 11.04585059 1.92039552 9.58903498 1.19604492 8.13647461 C-1.11288885 3.33866655 -1.11288885 3.33866655 0 0 Z " fill="#EAC382" transform="translate(817,677)"/>
<path d="M0 0 C1.28856475 3.86569424 0.45056761 4.74680499 -1.31640625 8.33984375 C-1.83396484 9.40396484 -2.35152344 10.46808594 -2.88476562 11.56445312 C-3.43841797 12.67755859 -3.99207031 13.79066406 -4.5625 14.9375 C-5.08908203 16.01580078 -5.61566406 17.09410156 -6.15820312 18.20507812 C-9.3260329 24.67644642 -12.55845108 31.11472845 -15.81616211 37.54125977 C-17.08481544 40.04339317 -17.08481544 40.04339317 -18 43 C-21.11208192 49.45468844 -24.54018853 55.72620853 -28 62 C-28.66 61.67 -29.32 61.34 -30 61 C-28.37469233 55.57937929 -26.02152094 50.63960192 -23.5625 45.5625 C-22.66405254 43.69271312 -21.76561543 41.82292127 -20.8671875 39.953125 C-20.39893555 38.98181641 -19.93068359 38.01050781 -19.44824219 37.00976562 C-17.98212127 33.96284408 -16.52483949 30.91184669 -15.0703125 27.859375 C-14.58876709 26.84931396 -14.10722168 25.83925293 -13.61108398 24.79858398 C-12.68846758 22.86332052 -11.76608935 20.92794349 -10.84399414 18.99243164 C-9.56945307 16.32495997 -8.28593344 13.6619955 -7 11 C-6.54963379 10.05560059 -6.09926758 9.11120117 -5.63525391 8.13818359 C-4.97468994 6.7762085 -4.97468994 6.7762085 -4.30078125 5.38671875 C-3.90673096 4.56776123 -3.51268066 3.74880371 -3.10668945 2.9050293 C-2 1 -2 1 0 0 Z " fill="#AD8755" transform="translate(484,586)"/>
<path d="M0 0 C0.99 0 1.98 0 3 0 C3 0.99 3 1.98 3 3 C2.34 3 1.68 3 1 3 C0.74798828 3.8262085 0.49597656 4.65241699 0.23632812 5.50366211 C-1.16959762 9.47962234 -2.91548783 13.16543484 -4.78125 16.94140625 C-5.15142242 17.69842834 -5.52159485 18.45545044 -5.90298462 19.2354126 C-7.09872527 21.67938937 -8.2994056 24.12090457 -9.5 26.5625 C-11.13443572 29.90024838 -12.76632923 33.23923805 -14.3984375 36.578125 C-14.79819794 37.39501297 -15.19795837 38.21190094 -15.60983276 39.05354309 C-20.14833014 48.33340354 -24.58969929 57.65858418 -29 67 C-31.35663572 59.93009285 -25.28167229 51.06729179 -22.1875 44.75 C-21.71900635 43.78288086 -21.2505127 42.81576172 -20.76782227 41.81933594 C-19.74239011 39.70280931 -18.7148731 37.58729182 -17.68554688 35.47265625 C-15.85722916 31.70585568 -14.04443911 27.93184244 -12.234375 24.15625 C-11.28190294 22.17227101 -10.32910311 20.18844987 -9.37612915 18.20471191 C-8.75253083 16.9060573 -8.12945982 15.60714935 -7.50692749 14.3079834 C-6.63053706 12.48029737 -5.75088098 10.65417835 -4.87109375 8.828125 C-4.36505615 7.7752832 -3.85901855 6.72244141 -3.33764648 5.63769531 C-2 3 -2 3 0 0 Z " fill="#D3AE6D" transform="translate(556,434)"/>
<path d="M0 0 C0.99 0 1.98 0 3 0 C3.31453125 1.02738281 3.6290625 2.05476562 3.953125 3.11328125 C6.1989733 10.40082983 8.50000248 17.63115408 11.203125 24.765625 C12 27 12 27 13 31 C-20.66 31 -54.32 31 -89 31 C-89 30.67 -89 30.34 -89 30 C-56.66 29.67 -24.32 29.34 9 29 C7.43523816 22.66276465 7.43523816 22.66276465 5.8125 19.6875 C5.544375 19.130625 5.27625 18.57375 5 18 C5.33 17.34 5.66 16.68 6 16 C5.01 15.505 5.01 15.505 4 15 C1.82454091 9.95293491 0.56784182 5.4512815 0 0 Z " fill="#AC8451" transform="translate(431,853)"/>
<path d="M0 0 C0.66 0.99 1.32 1.98 2 3 C1.14277344 3.845625 0.28554688 4.69125 -0.59765625 5.5625 C-6.62445228 11.53109167 -12.54661673 17.4960732 -18 24 C-18.87167152 25.02015058 -19.74413764 26.0396225 -20.6171875 27.05859375 C-25.90846857 33.25090337 -31.08177891 39.50391959 -36 46 C-36.66 45.67 -37.32 45.34 -38 45 C-36.34643078 41.41726669 -34.32019297 38.19026533 -32 35 C-31.34 35 -30.68 35 -30 35 C-29.78730469 34.47921875 -29.57460938 33.9584375 -29.35546875 33.421875 C-27.43285737 29.98666159 -24.90003338 27.20255335 -22.3125 24.25 C-21.77447754 23.63108887 -21.23645508 23.01217773 -20.68212891 22.37451172 C-19.61235543 21.14451353 -18.54110076 19.91580179 -17.46826172 18.68847656 C-16.20706805 17.23812482 -14.96311541 15.7728124 -13.72265625 14.3046875 C-13.11292969 13.58539062 -12.50320313 12.86609375 -11.875 12.125 C-11.09769531 11.20074219 -11.09769531 11.20074219 -10.3046875 10.2578125 C-9 9 -9 9 -7 9 C-6.773125 8.443125 -6.54625 7.88625 -6.3125 7.3125 C-4.64103234 4.36753316 -2.44723648 2.31843456 0 0 Z " fill="#DBB570" transform="translate(630,650)"/>
<path d="M0 0 C0.66 0.99 1.32 1.98 2 3 C1.34 3 0.68 3 0 3 C-0.26941406 3.74507812 -0.53882813 4.49015625 -0.81640625 5.2578125 C-1.9558664 7.89774987 -3.12407419 9.66696564 -4.9375 11.875 C-12.86955061 21.83120461 -20.28565279 32.0002365 -26.73950195 42.98461914 C-29.68498858 47.89499619 -29.68498858 47.89499619 -33 49 C-27.51589898 31.01422792 -11.62092858 14.48540597 0 0 Z " fill="#DFB470" transform="translate(640,664)"/>
<path d="M0 0 C0.99 0 1.98 0 3 0 C3.53572632 1.16233154 3.53572632 1.16233154 4.08227539 2.34814453 C5.43930477 5.28957732 6.79792598 8.23026658 8.15814209 11.17022705 C8.75909505 12.46918908 9.35972384 13.76830114 9.96002197 15.06756592 C13.80435012 23.38240851 17.72318013 31.63555692 22.0234375 39.7265625 C22.34570312 40.47679687 22.66796875 41.22703125 23 42 C22.67 42.66 22.34 43.32 22 44 C21.34 44 20.68 44 20 44 C19.87625 43.360625 19.7525 42.72125 19.625 42.0625 C19.41875 41.381875 19.2125 40.70125 19 40 C18.34 39.67 17.68 39.34 17 39 C15.64903945 36.60226869 14.39776907 34.21771717 13.1875 31.75 C12.83075195 31.03142822 12.47400391 30.31285645 12.10644531 29.57250977 C9.4293895 24.09181338 7.19212156 18.51476135 5.09765625 12.78515625 C4.12510616 10.31744019 3.04748165 8.14479516 1.6875 5.875 C0 3 0 3 0 0 Z " fill="#F7D59D" transform="translate(714,466)"/>
<path d="M0 0 C4.86988719 3.45319274 9.25066062 7.04863439 13.359375 11.38671875 C16.98556709 14.9524743 19.23162598 16.37186479 24.41113281 16.43237305 C25.49195129 16.45216721 26.57276978 16.47196136 27.68634033 16.49235535 C29.42714874 16.50194023 29.42714874 16.50194023 31.203125 16.51171875 C32.39605164 16.52966995 33.58897827 16.54762115 34.8180542 16.56611633 C38.62866683 16.62030371 42.43915359 16.6541431 46.25 16.6875 C48.83335088 16.72066551 51.41668513 16.75515445 54 16.79101562 C60.33322047 16.87603522 66.66645706 16.94434958 73 17 C73 17.33 73 17.66 73 18 C55.675 18.495 55.675 18.495 38 19 C38 19.33 38 19.66 38 20 C21.16725407 21.93809868 21.16725407 21.93809868 14.796875 17.50390625 C11.79637956 15.04818271 9.04651645 12.3751897 6.41894531 9.52587891 C5.0490113 8.05270486 3.58368594 6.67004656 2.1171875 5.29296875 C0 3 0 3 0 0 Z " fill="#BC9862" transform="translate(617,935)"/>
<path d="M0 0 C0.66 0.99 1.32 1.98 2 3 C0.3034902 10.29499216 -3.77408776 16.90971471 -8 23 C-8.97919308 24.49998276 -9.95835772 25.99998408 -10.9375 27.5 C-13.41339494 31.22329239 -16.06310229 34.63120557 -19 38 C-19.66 37.67 -20.32 37.34 -21 37 C-20.67 35.68 -20.34 34.36 -20 33 C-19.34 33 -18.68 33 -18 33 C-17.77957031 32.35417969 -17.55914063 31.70835937 -17.33203125 31.04296875 C-15.50837075 26.87689389 -13.10265926 23.15808152 -10.6875 19.3125 C-6.78441005 13.02408248 -3.06891041 6.74821184 0 0 Z " fill="#F1CC92" transform="translate(712,550)"/>
<path d="M0 0 C0.33 0.66 0.66 1.32 1 2 C1.66 2.33 2.32 2.66 3 3 C-3 15 -3 15 -4.46875 17.90625 C-6.26572194 21.53686677 -7.98209207 25.20071819 -9.6875 28.875 C-10.00783203 29.56335938 -10.32816406 30.25171875 -10.65820312 30.9609375 C-11.43956034 32.64027241 -12.2198875 34.32008651 -13 36 C-14.32 35.34 -15.64 34.68 -17 34 C-16.5153125 33.04222656 -16.030625 32.08445312 -15.53125 31.09765625 C-11.39865433 22.89796266 -7.3794486 14.6581376 -3.52734375 6.32250977 C-1.10244328 1.10244328 -1.10244328 1.10244328 0 0 Z " fill="#F3D499" transform="translate(604,333)"/>
<path d="M0 0 C0.33 0 0.66 0 1 0 C0.83757812 1.3096875 0.67515625 2.619375 0.5078125 3.96875 C-0.16706612 10.74138351 -0.15013655 17.50640144 -0.13037109 24.30419922 C-0.12501018 26.49583858 -0.1303463 28.68727308 -0.13671875 30.87890625 C-0.1398736 38.31174255 0.08387185 45.61280791 1 53 C0.01 52.67 -0.98 52.34 -2 52 C-1.67 50.35 -1.34 48.7 -1 47 C-1.66 47 -2.32 47 -3 47 C-6.04663212 14.13989637 -6.04663212 14.13989637 -2 2 C-1.34 1.34 -0.68 0.68 0 0 Z " fill="#A98153" transform="translate(432,798)"/>
<path d="M0 0 C0.66 0.33 1.32 0.66 2 1 C1.51296872 5.36210626 -1.34455531 8.09277892 -4.125 11.25 C-4.62273926 11.82556641 -5.12047852 12.40113281 -5.63330078 12.99414062 C-6.62809905 14.14265407 -7.62592742 15.28855083 -8.62695312 16.43164062 C-9.79499635 17.76583509 -10.95324772 19.10859179 -12.109375 20.453125 C-15.26801699 24.1149135 -18.42849149 27.73462079 -22 31 C-22.66 31 -23.32 31 -24 31 C-23.57838168 26.08111963 -21.57324099 24.26252438 -18 21 C-11.14513098 14.69851885 -5.64863732 7.36467904 0 0 Z " fill="#F1C88F" transform="translate(691,585)"/>
<path d="M0 0 C0.66 0.99 1.32 1.98 2 3 C3.99791713 3.46120839 3.99791713 3.46120839 6.34060669 3.39872742 C7.25208466 3.41126556 8.16356262 3.42380371 9.10266113 3.4367218 C10.60669495 3.43456917 10.60669495 3.43456917 12.14111328 3.43237305 C13.19479095 3.4425647 14.24846863 3.45275635 15.33407593 3.46325684 C18.82954113 3.4935391 22.32473301 3.50267612 25.8203125 3.51171875 C28.23885012 3.52855412 30.65737892 3.54670279 33.07589722 3.56611633 C39.4512456 3.61374631 45.82655827 3.64347158 52.20202637 3.66955566 C58.70376644 3.69929571 65.20538329 3.74584844 71.70703125 3.79101562 C84.47128733 3.87719658 97.23557326 3.94504653 110 4 C110 4.33 110 4.66 110 5 C73.7 5 37.4 5 0 5 C-0.33 3.68 -0.66 2.36 -1 1 C-0.67 0.67 -0.34 0.34 0 0 Z " fill="#AE8A57" transform="translate(750,880)"/>
<path d="M0 0 C1.26041675 2.5208335 0.66225891 3.35096436 0 6 C0.33 6.66 0.66 7.32 1 8 C0.566875 8.495 0.13375 8.99 -0.3125 9.5 C-2.11553409 12.17116162 -3.05431997 14.84474701 -4.125 17.8671875 C-5.31136967 20.75896358 -6.95151019 23.22882406 -8.66015625 25.8359375 C-11.07229225 29.73192392 -13.0135949 33.87503963 -15 38 C-16.125 36.31469727 -16.125 36.31469727 -17 34 C-16.3125 31.60913086 -16.3125 31.60913086 -15 28.96484375 C-14.52433594 27.98966797 -14.04867187 27.01449219 -13.55859375 26.00976562 C-12.78708984 24.48899414 -12.78708984 24.48899414 -12 22.9375 C-11.51660156 21.95072266 -11.03320312 20.96394531 -10.53515625 19.94726562 C-7.20309391 13.19917651 -3.64925875 6.58112111 0 0 Z " fill="#E0B879" transform="translate(573,398)"/>
<path d="M0 0 C3 1 3 1 4.5078125 3.66796875 C5.30832031 5.41013672 5.30832031 5.41013672 6.125 7.1875 C10.52849293 16.42897022 15.66638398 25.55286331 22.625 33.125 C23.40875 34.07375 24.1925 35.0225 25 36 C24.6484375 38.1796875 24.6484375 38.1796875 24 40 C0 11.61852861 0 11.61852861 0 0 Z " fill="#C9A856" transform="translate(597,844)"/>
<path d="M0 0 C5.64986828 4.09892405 10.98778484 8.46620805 16.25463867 13.0402832 C19.67896065 15.98611102 23.21664072 18.51717047 27 21 C28.36886951 22.29682374 29.7169291 23.61823134 31 25 C30.01 25.33 29.02 25.66 28 26 C25.91240339 24.68330317 24.09361705 23.36020674 22.1875 21.8125 C21.62506592 21.36704834 21.06263184 20.92159668 20.4831543 20.46264648 C16.03056007 16.9056009 11.65818208 13.24904064 7.3125 9.5625 C6.41277466 8.80126831 6.41277466 8.80126831 5.49487305 8.0246582 C2.91232301 5.80163307 0.90205253 3.8530788 -1 1 C-0.67 0.67 -0.34 0.34 0 0 Z " fill="#CEA468" transform="translate(641,902)"/>
<path d="M0 0 C0.99 0 1.98 0 3 0 C3 0.99 3 1.98 3 3 C2.34 3 1.68 3 1 3 C0.64035156 4.18142578 0.64035156 4.18142578 0.2734375 5.38671875 C-1.35038663 9.9941952 -3.32262483 14.38245491 -5.375 18.8125 C-5.76171875 19.68326172 -6.1484375 20.55402344 -6.546875 21.45117188 C-7.12308594 22.69157227 -7.12308594 22.69157227 -7.7109375 23.95703125 C-8.05431152 24.70960205 -8.39768555 25.46217285 -8.75146484 26.23754883 C-10 28 -10 28 -12.14306641 28.75268555 C-12.75585449 28.83429932 -13.36864258 28.91591309 -14 29 C-11.99288318 23.39888961 -9.69794665 18.11203807 -7 12.8125 C-6.65710938 12.12736328 -6.31421875 11.44222656 -5.9609375 10.73632812 C-4.9916487 8.81439861 -4.00143668 6.90533759 -3 5 C-2.484375 4.01386719 -1.96875 3.02773438 -1.4375 2.01171875 C-0.7259375 1.01591797 -0.7259375 1.01591797 0 0 Z " fill="#D7B076" transform="translate(556,434)"/>
<path d="M0 0 C0.66 0.33 1.32 0.66 2 1 C2.20871753 10.24154826 2.14982548 18.9400212 0 28 C-0.66 27.34 -1.32 26.68 -2 26 C-2.66 27.98 -3.32 29.96 -4 32 C-5.22916543 28.46924293 -4.73190871 26.29405987 -3.6875 22.75 C-1.66401147 15.25009755 -0.83096054 7.70349299 0 0 Z " fill="#EAC78F" transform="translate(723,512)"/>
<path d="M0 0 C1.13315882 3.39947645 0.86787136 4.07347148 -0.3125 7.3125 C-0.70888672 8.42044922 -0.70888672 8.42044922 -1.11328125 9.55078125 C-1.40589844 10.35902344 -1.69851563 11.16726563 -2 12 C-2.29003906 12.93457031 -2.58007812 13.86914062 -2.87890625 14.83203125 C-4.1833799 18.51819198 -5.84147776 21.9022067 -7.625 25.375 C-8.11226563 26.33599609 -8.11226563 26.33599609 -8.609375 27.31640625 C-9.40257407 28.87947501 -10.20077031 30.44000622 -11 32 C-11.99 32 -12.98 32 -14 32 C-12.28972979 26.17925083 -9.64210029 20.87645217 -7 15.4375 C-6.10273425 13.58272351 -5.20685431 11.72727585 -4.3125 9.87109375 C-3.91675781 9.05568115 -3.52101563 8.24026855 -3.11328125 7.40014648 C-1.98348283 4.96439029 -0.97463952 2.50140788 0 0 Z " fill="#AE7E49" transform="translate(468,615)"/>
<path d="M0 0 C2.18653397 2.18653397 2.48319786 3.0408469 3 6 C2.93794426 8.78968759 2.81723535 11.53229621 2.625 14.3125 C2.58117187 15.04662109 2.53734375 15.78074219 2.4921875 16.53710938 C2.20268306 21.0686581 1.69933846 25.51356601 1 30 C0.34 29.67 -0.32 29.34 -1 29 C-0.67 28.01 -0.34 27.02 0 26 C-0.66 26 -1.32 26 -2 26 C-2 18.08 -2 10.16 -2 2 C-1.34 2 -0.68 2 0 2 C0 1.34 0 0.68 0 0 Z " fill="#FDE3A4" transform="translate(721,497)"/>
<path d="M0 0 C2.58851314 2.2510748 3.51389158 3.9555197 4.31640625 7.2734375 C4.52330078 8.0984375 4.73019531 8.9234375 4.94335938 9.7734375 C5.14767578 10.63195312 5.35199219 11.49046875 5.5625 12.375 C6.79379224 17.40690636 8.04712024 22.19359731 10 27 C10.125 30.3125 10.125 30.3125 10 33 C6.3280498 28.52212238 5.02425091 23.64437607 3.3125 18.1875 C2.99216797 17.21490234 2.67183594 16.24230469 2.34179688 15.24023438 C0.66776425 9.96828089 -0.40899994 5.5330746 0 0 Z " fill="#C29E5D" transform="translate(586,809)"/>
<path d="M0 0 C0.66 0.33 1.32 0.66 2 1 C0.88121617 2.17262904 -0.24523051 3.33795138 -1.375 4.5 C-2.00148438 5.1496875 -2.62796875 5.799375 -3.2734375 6.46875 C-5 8 -5 8 -7 8 C-7.21914063 8.56332031 -7.43828125 9.12664063 -7.6640625 9.70703125 C-9.43085964 12.7395164 -11.65448954 14.4811879 -14.375 16.6875 C-15.33148437 17.47511719 -16.28796875 18.26273438 -17.2734375 19.07421875 C-19.68162943 20.77513368 -21.13113863 21.59890327 -24 22 C-24 21.34 -24 20.68 -24 20 C-22.38281689 18.5671282 -20.70376628 17.20375251 -19 15.875 C-15.32886088 12.94941355 -11.8876446 10.00014959 -8.625 6.625 C-5.96297263 3.89205796 -3.5447468 1.56385888 0 0 Z " fill="#E2B877" transform="translate(665,556)"/>
<path d="M0 0 C0.99 0 1.98 0 3 0 C3.31453125 1.02738281 3.6290625 2.05476562 3.953125 3.11328125 C6.20726242 10.42861182 8.52273635 17.68994604 11.203125 24.86328125 C11.83698948 26.56290806 12.42636985 28.27910955 13 30 C11.68 29.67 10.36 29.34 9 29 C8.566875 27.39125 8.566875 27.39125 8.125 25.75 C7.17357654 22.16546862 7.17357654 22.16546862 5.8125 19.6875 C5.544375 19.130625 5.27625 18.57375 5 18 C5.33 17.34 5.66 16.68 6 16 C5.34 15.67 4.68 15.34 4 15 C1.82454091 9.95293491 0.56784182 5.4512815 0 0 Z " fill="#A4774C" transform="translate(431,853)"/>
<path d="M0 0 C0.66 0 1.32 0 2 0 C6.35803199 9.32206252 10.69669027 18.65251768 15 28 C14.01 27.67 13.02 27.34 12 27 C12 26.34 12 25.68 12 25 C11.34 25 10.68 25 10 25 C8.12965549 21.40400558 6.28157151 17.79702853 4.4375 14.1875 C3.90447266 13.16333984 3.37144531 12.13917969 2.82226562 11.08398438 C2.32275391 10.10107422 1.82324219 9.11816406 1.30859375 8.10546875 C0.84251709 7.19949951 0.37644043 6.29353027 -0.10375977 5.36010742 C-1 3 -1 3 0 0 Z " fill="#EBBF7A" transform="translate(838,721)"/>
<path d="M0 0 C0.66 1.32 1.32 2.64 2 4 C0.5489926 5.83913695 -0.91101659 7.6711753 -2.375 9.5 C-3.18710937 10.5209375 -3.99921875 11.541875 -4.8359375 12.59375 C-5.90714844 13.78484375 -5.90714844 13.78484375 -7 15 C-7.66 15 -8.32 15 -9 15 C-9.20625 15.5775 -9.4125 16.155 -9.625 16.75 C-11.49750888 19.81410544 -13.96958519 21.15539968 -17 23 C-17.66 22.67 -18.32 22.34 -19 22 C-18.22914063 21.25234375 -17.45828125 20.5046875 -16.6640625 19.734375 C-15.65077644 18.73985349 -14.63777025 17.74504677 -13.625 16.75 C-13.11710938 16.25886719 -12.60921875 15.76773438 -12.0859375 15.26171875 C-9.45336857 12.66378888 -7.50482221 10.37444981 -6 7 C-4.66666667 6 -3.33333333 5 -2 4 C-0.7483533 1.91665365 -0.7483533 1.91665365 0 0 Z " fill="#E8C083" transform="translate(680,536)"/>
<path d="M0 0 C0.5775 0.226875 1.155 0.45375 1.75 0.6875 C-5.86476884 6.42847755 -13.51963855 12.10277037 -21.25 17.6875 C-22.24 17.0275 -23.23 16.3675 -24.25 15.6875 C-23.72567383 15.30940186 -23.20134766 14.93130371 -22.66113281 14.54174805 C-20.27380858 12.81988648 -17.8869005 11.09744891 -15.5 9.375 C-14.675 8.78009766 -13.85 8.18519531 -13 7.57226562 C-11.80117188 6.70698242 -11.80117188 6.70698242 -10.578125 5.82421875 C-9.8449707 5.29530029 -9.11181641 4.76638184 -8.35644531 4.22143555 C-6.91778442 3.17378761 -5.50611273 2.08831432 -4.12011719 0.97192383 C-2.25 -0.3125 -2.25 -0.3125 0 0 Z " fill="#D0AC61" transform="translate(594.25,613.3125)"/>
<path d="M0 0 C5.53359156 0.5056435 9.56030575 1.95616868 14.4375 4.5625 C15.39172852 5.0565332 15.39172852 5.0565332 16.36523438 5.56054688 C17.91494576 6.36453248 19.45818322 7.18097666 21 8 C21 8.66 21 9.32 21 10 C18.69 9.67 16.38 9.34 14 9 C14 8.34 14 7.68 14 7 C13.27425781 6.88785156 12.54851563 6.77570312 11.80078125 6.66015625 C8.87436007 5.97038613 6.77712191 4.94489186 4.1875 3.4375 C3.39730469 2.98246094 2.60710938 2.52742187 1.79296875 2.05859375 C1.20128906 1.70925781 0.60960937 1.35992188 0 1 C0 0.67 0 0.34 0 0 Z M-4 9 C1.94 9 7.88 9 14 9 C14 9.33 14 9.66 14 10 C8.06 10 2.12 10 -4 10 C-4 9.67 -4 9.34 -4 9 Z " fill="#D7AB71" transform="translate(697,944)"/>
<path d="M0 0 C0.33 0.66 0.66 1.32 1 2 C-0.20269387 4.48259771 -1.45396088 6.85474153 -2.8125 9.25 C-5.83599124 14.61436178 -5.83599124 14.61436178 -8.01171875 20.359375 C-9 23 -9 23 -11.125 24.375 C-11.74375 24.58125 -12.3625 24.7875 -13 25 C-11.31315379 19.24487763 -9.14067915 13.93241134 -6.5 8.5625 C-6.20343506 7.94745605 -5.90687012 7.33241211 -5.60131836 6.69873047 C-3.99549703 3.50130254 -3.0450481 2.03003207 0 0 Z " fill="#D3AA6B" transform="translate(608,712)"/>
<path d="M0 0 C3.07184758 3.70172169 5.06821752 7.84044699 7.1875 12.125 C7.55552734 12.85332031 7.92355469 13.58164062 8.30273438 14.33203125 C11 19.74657931 11 19.74657931 11 22 C9.1315918 21.73413086 9.1315918 21.73413086 7 21 C5.82739258 19.35766602 5.82739258 19.35766602 4.89453125 17.25390625 C4.55099609 16.49916016 4.20746094 15.74441406 3.85351562 14.96679688 C3.50998047 14.17337891 3.16644531 13.37996094 2.8125 12.5625 C2.45736328 11.77294922 2.10222656 10.98339844 1.73632812 10.16992188 C1.07900357 8.70684464 0.42773877 7.24101966 -0.21557617 5.77172852 C-0.7786473 4.49995536 -1.37799421 3.24401159 -2 2 C-1.34 2 -0.68 2 0 2 C0 1.34 0 0.68 0 0 Z " fill="#B18F57" transform="translate(698,774)"/>
<path d="M0 0 C0.33 0 0.66 0 1 0 C1.36144252 5.91665697 0.13416633 10.40061139 -1.875 15.9375 C-3.877797 21.58653747 -5.63155983 27.16087906 -7 33 C-7.33 33 -7.66 33 -8 33 C-8.51648118 25.30390879 -7.17575482 19.21074226 -4.5625 12 C-4.23701172 11.06027344 -3.91152344 10.12054687 -3.57617188 9.15234375 C-1.26664807 2.53329613 -1.26664807 2.53329613 0 0 Z " fill="#CCA86A" transform="translate(563,742)"/>
<path d="M0 0 C3 3.75 3 3.75 3 6 C3.99 6.33 4.98 6.66 6 7 C6.9831543 8.58227539 6.9831543 8.58227539 7.82421875 10.59765625 C8.13037109 11.31630859 8.43652344 12.03496094 8.75195312 12.77539062 C9.06068359 13.53013672 9.36941406 14.28488281 9.6875 15.0625 C10.00783203 15.82111328 10.32816406 16.57972656 10.65820312 17.36132812 C11.44850702 19.23682542 12.22552197 21.1179123 13 23 C12.34 23.66 11.68 24.32 11 25 C9.34005808 21.96583281 7.69966379 18.92150942 6.0625 15.875 C5.59392578 15.0190625 5.12535156 14.163125 4.64257812 13.28125 C2.27537619 8.85339027 0.39298172 5.10040109 0 0 Z " fill="#EBC087" transform="translate(805,654)"/>
<path d="M0 0 C0.99 0 1.98 0 3 0 C5.97 6.6 8.94 13.2 12 20 C11.01 20.33 10.02 20.66 9 21 C7.67997444 18.44113496 6.36886218 15.87832932 5.0625 13.3125 C4.68931641 12.59126953 4.31613281 11.87003906 3.93164062 11.12695312 C2.06034761 7.43494258 0.51730444 4.16306904 0 0 Z " fill="#FDE1A3" transform="translate(714,466)"/>
<path d="M0 0 C1.36924724 4.10774173 -0.11669971 6.77153603 -1.625 10.625 C-1.89844238 11.33978516 -2.17188477 12.05457031 -2.45361328 12.79101562 C-4.53948882 18.11984185 -6.95266022 23.14583044 -10 28 C-11 26 -11 26 -11 23 C-10.20556641 20.97875977 -10.20556641 20.97875977 -9.1015625 18.69140625 C-8.70453125 17.86189453 -8.3075 17.03238281 -7.8984375 16.17773438 C-7.47820313 15.31470703 -7.05796875 14.45167969 -6.625 13.5625 C-6.2125 12.70333984 -5.8 11.84417969 -5.375 10.95898438 C-3.61109243 7.29176363 -1.82587027 3.6367913 0 0 Z " fill="#C5A164" transform="translate(528,491)"/>
<path d="M0 0 C2.24107496 2.88138209 4.33168894 5.74679343 6 9 C5.67 9.99 5.34 10.98 5 12 C6.66924071 15.04134491 6.66924071 15.04134491 9 16 C10.231394 18.46278801 10.07159196 20.2795055 10 23 C9.34 23 8.68 23 8 23 C6.45611303 20.11589917 4.94419077 17.21618192 3.4375 14.3125 C2.99986328 13.49587891 2.56222656 12.67925781 2.11132812 11.83789062 C1.70205078 11.04189453 1.29277344 10.24589844 0.87109375 9.42578125 C0.29766235 8.33390503 0.29766235 8.33390503 -0.28735352 7.2199707 C-1.16924935 4.47277002 -0.76170301 2.74508483 0 0 Z " fill="#AF8E58" transform="translate(713,804)"/>
<path d="M0 0 C1.32 0.66 2.64 1.32 4 2 C1.36804809 7.55634291 -1.79768752 12.75608378 -5 18 C-5.66 17.01 -6.32 16.02 -7 15 C-5.98877577 12.29453165 -4.92517855 9.87222652 -3.625 7.3125 C-3.28210938 6.61060547 -2.93921875 5.90871094 -2.5859375 5.18554688 C-1.73632417 3.45091967 -0.86973713 1.72462508 0 0 Z " fill="#F9DA97" transform="translate(611,317)"/>
<path d="M0 0 C0.66 0.99 1.32 1.98 2 3 C3.92902828 3.47393562 3.92902828 3.47393562 6.17431641 3.43237305 C7.03505768 3.45216721 7.89579895 3.47196136 8.78262329 3.49235535 C9.71287323 3.49874527 10.64312317 3.50513519 11.6015625 3.51171875 C13.02896255 3.53864555 13.02896255 3.53864555 14.48519897 3.56611633 C17.5317539 3.62040249 20.57815057 3.65417359 23.625 3.6875 C25.68752212 3.72065692 27.75002329 3.75514504 29.8125 3.79101562 C34.8748861 3.87613944 39.93722378 3.94286304 45 4 C45 4.33 45 4.66 45 5 C30.15 5 15.3 5 0 5 C-0.33 3.68 -0.66 2.36 -1 1 C-0.67 0.67 -0.34 0.34 0 0 Z " fill="#A78251" transform="translate(750,880)"/>
<path d="M0 0 C0.99 0.33 1.98 0.66 3 1 C2.4136792 5.69056641 0.64951093 10.08968731 -2 14 C-2.99 14.33 -3.98 14.66 -5 15 C-5 10.80434426 -4.2710189 8.96913969 -2.5 5.25 C-2.0359375 4.26515625 -1.571875 3.2803125 -1.09375 2.265625 C-0.7328125 1.51796875 -0.371875 0.7703125 0 0 Z " fill="#ECCA8B" transform="translate(587,368)"/>
<path d="M0 0 C0.33 0 0.66 0 1 0 C1.33 6.93 1.66 13.86 2 21 C1.34 21 0.68 21 0 21 C-0.33 21.66 -0.66 22.32 -1 23 C-1.8421096 20.11445248 -2.08213157 17.7033772 -1.9140625 14.70703125 C-1.87023437 13.91232422 -1.82640625 13.11761719 -1.78125 12.29882812 C-1.7296875 11.47833984 -1.678125 10.65785156 -1.625 9.8125 C-1.55925781 8.56436523 -1.55925781 8.56436523 -1.4921875 7.29101562 C-1.13070211 1.13070211 -1.13070211 1.13070211 0 0 Z " fill="#C09F5E" transform="translate(586,785)"/>
<path d="M0 0 C-1.52724966 4.03630268 -4.03756731 5.78985046 -7.5 8.25 C-8.4796875 8.95640625 -9.459375 9.6628125 -10.46875 10.390625 C-13 12 -13 12 -15 12 C-15.33 12.66 -15.66 13.32 -16 14 C-16.66 13.34 -17.32 12.68 -18 12 C-15.38084613 9.99224902 -12.75375554 7.99515805 -10.125 6 C-9.00544922 5.14148438 -9.00544922 5.14148438 -7.86328125 4.265625 C-7.14785156 3.72421875 -6.43242188 3.1828125 -5.6953125 2.625 C-5.03547363 2.12226562 -4.37563477 1.61953125 -3.69580078 1.1015625 C-2 0 -2 0 0 0 Z " fill="#C29D65" transform="translate(566,633)"/>
<path d="M0 0 C4.25136377 1.5183442 5.6431281 4.28614125 8 8 C8.92686668 9.05113931 9.86434111 10.09302596 10.8125 11.125 C11.534375 12.07375 12.25625 13.0225 13 14 C12.63671875 16.1796875 12.63671875 16.1796875 12 18 C0 3.26213592 0 3.26213592 0 0 Z " fill="#C09863" transform="translate(609,866)"/>
<path d="M0 0 C5.59363406 4.06133537 10.85963514 8.3791401 16 13 C15.01 13.33 14.02 13.66 13 14 C10.40625 12.26953125 10.40625 12.26953125 7.5 9.8125 C6.5409375 9.01457031 5.581875 8.21664062 4.59375 7.39453125 C2.39584527 5.36544149 0.67502228 3.46160369 -1 1 C-0.67 0.67 -0.34 0.34 0 0 Z " fill="#C59E64" transform="translate(641,902)"/>
<path d="M0 0 C3.07393213 3.07393213 3.84749009 6.92636988 5.1875 11 C5.47302734 11.83273437 5.75855469 12.66546875 6.05273438 13.5234375 C6.31763672 14.32007813 6.58253906 15.11671875 6.85546875 15.9375 C7.09934326 16.66839844 7.34321777 17.39929688 7.59448242 18.15234375 C8 20 8 20 7 22 C0.70386727 16.23147616 0.42860909 8.04011532 0 0 Z " fill="#BE965F" transform="translate(557,839)"/>
<path d="M0 0 C0.66 0.33 1.32 0.66 2 1 C1.73445313 1.78503906 1.46890625 2.57007813 1.1953125 3.37890625 C0.84210938 4.42949219 0.48890625 5.48007812 0.125 6.5625 C-0.24238281 7.65304687 -0.60976563 8.74359375 -0.98828125 9.8671875 C-1.77480113 12.30266603 -2.45485167 14.70497093 -3.0625 17.1875 C-3.371875 18.115625 -3.68125 19.04375 -4 20 C-4.99 20.33 -5.98 20.66 -7 21 C-6.52155996 16.85351967 -5.90162402 13.68439654 -4 10 C-3.61709538 8.00889599 -3.27395385 6.00899487 -3 4 C-2.34 4 -1.68 4 -1 4 C-0.67 2.68 -0.34 1.36 0 0 Z " fill="#A48256" transform="translate(438,776)"/>
<path d="M0 0 C1.14991152 3.44973455 0.93317663 5.70183602 0.625 9.3125 C0.53476562 10.42238281 0.44453125 11.53226563 0.3515625 12.67578125 C0.01968022 15.81391263 -0.44557034 18.89425422 -1 22 C-1.99 21.34 -2.98 20.68 -4 20 C-3.7155186 17.79072956 -3.4220904 15.58261021 -3.125 13.375 C-2.96257813 12.14523437 -2.80015625 10.91546875 -2.6328125 9.6484375 C-2.04516311 6.26038483 -1.18011878 3.22301349 0 0 Z " fill="#BD9B61" transform="translate(555,767)"/>
<path d="M0 0 C4.33333333 4.33333333 8.66666667 8.66666667 13 13 C12.67 13.99 12.34 14.98 12 16 C7.19432999 12.24923316 2.36356705 8.13669346 -1 3 C-0.67 2.01 -0.34 1.02 0 0 Z " fill="#C39C62" transform="translate(626,886)"/>
<path d="M0 0 C0.99 0.33 1.98 0.66 3 1 C2.071875 2.051875 2.071875 2.051875 1.125 3.125 C-1.06333436 6.08568766 -1.89102013 8.52519639 -3 12 C-4.625 14.375 -4.625 14.375 -6 16 C-7.0255368 13.32738894 -7.08282493 12.2243612 -6.07421875 9.4921875 C-5.61660156 8.62851562 -5.15898437 7.76484375 -4.6875 6.875 C-4.23761719 6.00617187 -3.78773438 5.13734375 -3.32421875 4.2421875 C-2 2 -2 2 0 0 Z " fill="#A27E51" transform="translate(392,777)"/>
<path d="M0 0 C2.475 0.495 2.475 0.495 5 1 C5.12117187 1.62648438 5.24234375 2.25296875 5.3671875 2.8984375 C5.53476562 3.71570313 5.70234375 4.53296875 5.875 5.375 C6.03742187 6.18710937 6.19984375 6.99921875 6.3671875 7.8359375 C6.86658932 10.18673923 6.86658932 10.18673923 9 12 C9.69748583 13.31747324 10.36959957 14.64914193 11 16 C10.34 16.99 9.68 17.98 9 19 C6.03 12.73 3.06 6.46 0 0 Z " fill="#A88758" transform="translate(738,861)"/>
<path d="M0 0 C1.485 0.99 1.485 0.99 3 2 C3.66 2.33 4.32 2.66 5 3 C5.40729228 5.32156597 5.74438677 7.6568787 6 10 C6.66 10 7.32 10 8 10 C8.33 11.32 8.66 12.64 9 14 C8.01 14.33 7.02 14.66 6 15 C4.99267601 13.06629769 3.99436712 11.12789694 3 9.1875 C2.443125 8.10855469 1.88625 7.02960937 1.3125 5.91796875 C0 3 0 3 0 0 Z " fill="#A88759" transform="translate(730,843)"/>
<path d="M0 0 C0.99 0.33 1.98 0.66 3 1 C1.53181332 4.10742423 -0.20025 6.90471739 -2.125 9.75 C-2.93324219 10.94882812 -2.93324219 10.94882812 -3.7578125 12.171875 C-4.16773438 12.77515625 -4.57765625 13.3784375 -5 14 C-5.5534764 11.92446352 -6 10.15634036 -6 8 C-5.34 7.34 -4.68 6.68 -4 6 C-3.01 6 -2.02 6 -1 6 C-1.20625 5.38125 -1.4125 4.7625 -1.625 4.125 C-1.74875 3.42375 -1.8725 2.7225 -2 2 C-1.34 1.34 -0.68 0.68 0 0 Z " fill="#A68558" transform="translate(467,720)"/>
<path d="M0 0 C1.73602074 3.05938081 2.39557633 5.63288438 2.75 9.125 C2.84796875 9.99382813 2.9459375 10.86265625 3.046875 11.7578125 C3 14 3 14 1 16 C0.01 11.71 -0.98 7.42 -2 3 C-1.34 3 -0.68 3 0 3 C0 2.01 0 1.02 0 0 Z " fill="#C09D5C" transform="translate(554,824)"/>
<path d="M0 0 C0.33 0 0.66 0 1 0 C1.36263859 5.8022175 0.25684543 9.63999211 -2 15 C-2.99 15 -3.98 15 -5 15 C-1.92482916 4.44191344 -1.92482916 4.44191344 0 0 Z " fill="#C19E6A" transform="translate(563,742)"/>
<path d="M0 0 C1.34753292 2.69506584 0.5309242 4.27161014 -0.3203125 7.046875 C-1.38608727 10.10944617 -2.67198218 13.04214213 -4 16 C-4.66 15.34 -5.32 14.68 -6 14 C-5.38003999 12.2273959 -4.75384007 10.45697333 -4.125 8.6875 C-3.77695312 7.70136719 -3.42890625 6.71523438 -3.0703125 5.69921875 C-2 3 -2 3 0 0 Z " fill="#A27D4F" transform="translate(440,675)"/>
<path d="M0 0 C0.33 0 0.66 0 1 0 C0.93941406 0.59425781 0.87882812 1.18851563 0.81640625 1.80078125 C0.16982122 8.19699929 -0.42784346 14.59671614 -1 21 C-1.33 21 -1.66 21 -2 21 C-2.19600577 18.77156512 -2.38146569 16.54220107 -2.5625 14.3125 C-2.66691406 13.07113281 -2.77132813 11.82976563 -2.87890625 10.55078125 C-2.98595661 7.41178854 -2.90038915 4.99231124 -2 2 C-1.34 1.34 -0.68 0.68 0 0 Z " fill="#A67A4B" transform="translate(432,798)"/>
<path d="M0 0 C2.91024202 2.50058918 4.16791164 5.19655377 5.6875 8.6875 C6.12449219 9.68136719 6.56148437 10.67523437 7.01171875 11.69921875 C7.33785156 12.45847656 7.66398438 13.21773437 8 14 C7.01 13.67 6.02 13.34 5 13 C5 12.34 5 11.68 5 11 C4.34 11 3.68 11 3 11 C2.30300448 9.54618103 1.61766134 8.08677047 0.9375 6.625 C0.55464844 5.81289063 0.17179688 5.00078125 -0.22265625 4.1640625 C-0.47917969 3.44992187 -0.73570312 2.73578125 -1 2 C-0.67 1.34 -0.34 0.68 0 0 Z " fill="#E3BE72" transform="translate(845,735)"/>
<path d="M0 0 C0.33 0.66 0.66 1.32 1 2 C0.00390625 4.3828125 0.00390625 4.3828125 -1.4375 7.125 C-1.91058594 8.03507812 -2.38367188 8.94515625 -2.87109375 9.8828125 C-3.24363281 10.58148438 -3.61617187 11.28015625 -4 12 C-4.99 11.67 -5.98 11.34 -7 11 C-6.40361667 9.72549553 -5.79752584 8.45553123 -5.1875 7.1875 C-4.85105469 6.47980469 -4.51460937 5.77210938 -4.16796875 5.04296875 C-2.99354529 2.98870965 -1.74371984 1.58383722 0 0 Z " fill="#E0BE69" transform="translate(549,451)"/>
<path d="M0 0 C2.97526665 2.55022856 4.50122302 5.40293526 6 9 C5.67 9.99 5.34 10.98 5 12 C4.34 11.01 3.68 10.02 3 9 C2.34 9 1.68 9 1 9 C-0.61949011 6.42786866 -1.04408751 5.32330841 -0.625 2.25 C-0.41875 1.5075 -0.2125 0.765 0 0 Z " fill="#F9D69C" transform="translate(661,353)"/>
<path d="M0 0 C4.15422634 3.69264564 7.27087259 7.63296818 9 13 C8.67 13.99 8.34 14.98 8 16 C7.401875 14.9275 6.80375 13.855 6.1875 12.75 C4.98896315 10.63343493 3.82994379 8.78585514 2.3125 6.875 C0.73428944 4.62041349 0.37524564 2.70176862 0 0 Z " fill="#D6B579" transform="translate(849,746)"/>
<path d="M0 0 C0 3.92709135 -1.27900462 4.8189713 -3.875 7.6875 C-4.59429688 8.49574219 -5.31359375 9.30398438 -6.0546875 10.13671875 C-8 12 -8 12 -10 12 C-10 9.875 -10 9.875 -9 7 C-6.50035946 4.74816865 -3.77691336 2.89117375 -1 1 C-0.67 0.67 -0.34 0.34 0 0 Z " fill="#F1CC83" transform="translate(677,604)"/>
<path d="M0 0 C0.66 0.99 1.32 1.98 2 3 C0.625 4.5 0.625 4.5 -1 6 C-1.66 6 -2.32 6 -3 6 C-4.36161311 6.96113866 -5.69855198 7.95884159 -7 9 C-5.44499019 5.18315774 -2.96404505 2.80804268 0 0 Z " fill="#E2B77C" transform="translate(679,600)"/>
<path d="M0 0 C0.66 1.32 1.32 2.64 2 4 C0.02 6.31 -1.96 8.62 -4 11 C-4.99 10.67 -5.98 10.34 -7 10 C-6 7 -6 7 -4.0625 5.5625 C-1.83336183 3.87375896 -1.0554819 2.55074793 0 0 Z " fill="#E7BE7B" transform="translate(680,536)"/>
<path d="M0 0 C0.66 0.33 1.32 0.66 2 1 C3.1577506 4.47325181 3.06866652 7.36067448 3 11 C2.01 11 1.02 11 0 11 C-1.125 3.375 -1.125 3.375 0 0 Z " fill="#FEE7A4" transform="translate(717,478)"/>
<path d="M0 0 C0.33 0.66 0.66 1.32 1 2 C1.99 2 2.98 2 4 2 C4.99 4.64 5.98 7.28 7 10 C6.01 10.33 5.02 10.66 4 11 C1.6870518 8.6870518 1.50419025 7.52095125 0.875 4.375 C0.70742188 3.55773437 0.53984375 2.74046875 0.3671875 1.8984375 C0.24601563 1.27195312 0.12484375 0.64546875 0 0 Z " fill="#FCE4AA" transform="translate(697,430)"/>
<path d="M0 0 C0.66 0 1.32 0 2 0 C3.65 3.63 5.3 7.26 7 11 C3 10 3 10 1.25 7.1875 C0 4 0 4 0 0 Z " fill="#DBB76B" transform="translate(866,780)"/>
<path d="M0 0 C1.32 0.33 2.64 0.66 4 1 C0.04 4.465 0.04 4.465 -4 8 C-4.99 7.34 -5.98 6.68 -7 6 C-5.93106782 4.96409662 -4.84421512 3.94666058 -3.75 2.9375 C-3.14671875 2.36902344 -2.5434375 1.80054688 -1.921875 1.21484375 C-1.28765625 0.81394531 -0.6534375 0.41304687 0 0 Z " fill="#C9AC53" transform="translate(526,662)"/>
<path d="M0 0 C-4.455 3.465 -4.455 3.465 -9 7 C-9.99 6.34 -10.98 5.68 -12 5 C-10.76265016 3.96386967 -9.50955363 2.94652198 -8.25 1.9375 C-7.55390625 1.36902344 -6.8578125 0.80054688 -6.140625 0.21484375 C-4 -1 -4 -1 0 0 Z " fill="#CFA470" transform="translate(596,614)"/>
<path d="M0 0 C1.32 0.66 2.64 1.32 4 2 C0.55384615 7.78461538 0.55384615 7.78461538 -2.25 8.875 C-2.8275 8.91625 -3.405 8.9575 -4 9 C-2.94124926 5.59687262 -1.99097846 2.98646769 0 0 Z " fill="#AE8953" transform="translate(493,565)"/>
<path d="M0 0 C0.33 0.66 0.66 1.32 1 2 C1.66 2 2.32 2 3 2 C2.67 4.31 2.34 6.62 2 9 C1.34 8.34 0.68 7.68 0 7 C-0.66 8.98 -1.32 10.96 -2 13 C-3.18771723 9.57056481 -2.80226223 7.62215325 -1.5625 4.25 C-1.27503906 3.45078125 -0.98757813 2.6515625 -0.69140625 1.828125 C-0.46324219 1.22484375 -0.23507812 0.6215625 0 0 Z " fill="#E6C183" transform="translate(721,531)"/>
<path d="M0 0 C4.8274799 1.41292095 8.7162359 3.42974154 13 6 C9.13477676 7.28840775 7.47619269 6.4223305 3.80859375 4.96875 C2 4 2 4 0.5 1.8125 C0.335 1.214375 0.17 0.61625 0 0 Z " fill="#CAA468" transform="translate(689,938)"/>
<path d="M0 0 C2 0 2 0 3.69140625 1.6796875 C4.30886719 2.40414062 4.92632813 3.12859375 5.5625 3.875 C6.18253906 4.59429688 6.80257812 5.31359375 7.44140625 6.0546875 C9 8 9 8 10 10 C6.37386801 9.43040847 4.74482259 8.07625466 2.25 5.4375 C1.63640625 4.79683594 1.0228125 4.15617188 0.390625 3.49609375 C-0.06828125 3.00238281 -0.5271875 2.50867188 -1 2 C-0.67 1.34 -0.34 0.68 0 0 Z " fill="#C0975F" transform="translate(606,924)"/>
<path d="M0 0 C3.81051886 4.67654587 5.17156069 9.06285161 6 15 C2.66475716 12.30004151 1.43648692 8.96744005 0 5 C-0.1875 2.0625 -0.1875 2.0625 0 0 Z " fill="#D7AF71" transform="translate(908,866)"/>
<path d="M0 0 C3 3.75 3 3.75 3 6 C3.99 6.33 4.98 6.66 6 7 C7 10 7 10 6.0625 12.1875 C5.5365625 13.0846875 5.5365625 13.0846875 5 14 C4.15675328 12.421924 3.32576082 10.8372958 2.5 9.25 C2.0359375 8.36828125 1.571875 7.4865625 1.09375 6.578125 C0 4 0 4 0 0 Z " fill="#F3D093" transform="translate(805,654)"/>
<path d="M0 0 C0.33 0 0.66 0 1 0 C0.25 7.625 0.25 7.625 -2 11 C-2.66 11 -3.32 11 -4 11 C-3.49172849 6.62886504 -2.54826592 3.61004338 0 0 Z " fill="#A58051" transform="translate(453,648)"/>
<path d="M0 0 C0.99 0.33 1.98 0.66 3 1 C1.35 4.63 -0.3 8.26 -2 12 C-2.33 12 -2.66 12 -3 12 C-2.88541307 10.56163249 -2.75790884 9.12429034 -2.625 7.6875 C-2.55539062 6.88699219 -2.48578125 6.08648438 -2.4140625 5.26171875 C-2 3 -2 3 0 0 Z " fill="#CAA769" transform="translate(567,734)"/>
<path d="M0 0 C0.33 0.99 0.66 1.98 1 3 C-0.43359375 5.04296875 -0.43359375 5.04296875 -2.4375 7.1875 C-3.09621094 7.90292969 -3.75492188 8.61835937 -4.43359375 9.35546875 C-4.95050781 9.89816406 -5.46742188 10.44085937 -6 11 C-6.33 10.34 -6.66 9.68 -7 9 C-5.19168608 5.38337216 -2.94721162 2.74395564 0 0 Z " fill="#DDB97E" transform="translate(619,662)"/>
<path d="M0 0 C2.64752004 2.57784846 4.94432065 4.91648098 7 8 C6.67 8.99 6.34 9.98 6 11 C4.80040625 9.74057614 3.61560557 8.46704714 2.4375 7.1875 C1.44556641 6.12595703 1.44556641 6.12595703 0.43359375 5.04296875 C-0.03949219 4.36878906 -0.51257813 3.69460938 -1 3 C-0.67 2.01 -0.34 1.02 0 0 Z " fill="#C09F5D" transform="translate(589,903)"/>
<path d="M0 0 C0.99 0 1.98 0 3 0 C1.77472971 4.05281712 0.30119506 7.44360764 -2 11 C-2.99 10.67 -3.98 10.34 -5 10 C-4.525625 9.608125 -4.05125 9.21625 -3.5625 8.8125 C-1.63571044 6.57742411 -1.4429629 4.87925887 -1 2 C-0.67 1.34 -0.34 0.68 0 0 Z " fill="#A77F58" transform="translate(446,754)"/>
<path d="M0 0 C3 1 3 1 4.203125 2.7421875 C4.54859375 3.44601562 4.8940625 4.14984375 5.25 4.875 C5.60578125 5.57367187 5.9615625 6.27234375 6.328125 6.9921875 C7 9 7 9 6 12 C4.5 10 4.5 10 3 8 C2.1646875 7.01 2.1646875 7.01 1.3125 6 C0 4 0 4 0 0 Z " fill="#EEBE8B" transform="translate(802,648)"/>
<path d="M0 0 C1.26041675 2.5208335 0.66225891 3.35096436 0 6 C0.33 6.66 0.66 7.32 1 8 C0.01 8.99 -0.98 9.98 -2 11 C-2.99 10.67 -3.98 10.34 -5 10 C-3.35 6.7 -1.7 3.4 0 0 Z " fill="#E0B679" transform="translate(573,398)"/>
<path d="M0 0 C0.99 0 1.98 0 3 0 C1.90931332 3.77545388 1.0916909 6.47043472 -2 9 C-3 6 -3 6 -1.5625 2.8125 C-1.046875 1.884375 -0.53125 0.95625 0 0 Z " fill="#A17E4E" transform="translate(345,873)"/>
<path d="M0 0 C0.66 0.99 1.32 1.98 2 3 C0.75 5.9375 0.75 5.9375 -1 9 C-2.32 9.33 -3.64 9.66 -5 10 C-3.35 6.7 -1.7 3.4 0 0 Z " fill="#9F7B52" transform="translate(374,813)"/>
<path d="M0 0 C0.99 0.33 1.98 0.66 3 1 C2.67 5.95 2.34 10.9 2 16 C1.67 16 1.34 16 1 16 C0.67 10.72 0.34 5.44 0 0 Z " fill="#BF9868" transform="translate(585,767)"/>
<path d="M0 0 C1.32 0 2.64 0 4 0 C2.54955729 4.10958767 0.48889248 7.43258745 -2 11 C-2.66 10.01 -3.32 9.02 -4 8 C-3.34 7.34 -2.68 6.68 -2 6 C-0.3899227 3.16799705 -0.3899227 3.16799705 0 0 Z " fill="#A98A56" transform="translate(456,735)"/>
<path d="M0 0 C1.28485596 5.13942384 0.22194431 6.37835584 -2 11 C-2.99 10.67 -3.98 10.34 -5 10 C-3.35 6.7 -1.7 3.4 0 0 Z " fill="#AC7045" transform="translate(413,731)"/>
<path d="M0 0 C0.99 0 1.98 0 3 0 C5.42857143 6.28571429 5.42857143 6.28571429 4 10 C0 3.375 0 3.375 0 0 Z " fill="#FEECB0" transform="translate(714,466)"/>
<path d="M0 0 C0.75 1.75 0.75 1.75 1 4 C-0.9375 6.25 -0.9375 6.25 -3 8 C-4.32 7.34 -5.64 6.68 -7 6 C-4 4 -4 4 -3 4 C-3 3.34 -3 2.68 -3 2 C-2.01 1.34 -1.02 0.68 0 0 Z " fill="#AC8B5A" transform="translate(484,701)"/>
<path d="M0 0 C0.95397067 3.40394081 1.05552406 5.56954679 0 9 C-1.5625 10.8125 -1.5625 10.8125 -3 12 C-4.21386936 8.35839192 -3.6674695 7.66834531 -2.0625 4.3125 C-1.49208984 3.10013672 -1.49208984 3.10013672 -0.91015625 1.86328125 C-0.60980469 1.24839844 -0.30945313 0.63351562 0 0 Z " fill="#AE7746" transform="translate(458,636)"/>
<path d="M0 0 C-1.75 5.75 -1.75 5.75 -4 8 C-4.99 8 -5.98 8 -7 8 C-4.18918919 0 -4.18918919 0 0 0 Z " fill="#DDB87E" transform="translate(699,507)"/>
<path d="M0 0 C1 3 1 3 0.22265625 4.82421875 C-0.8515625 6.54947917 -1.92578125 8.27473958 -3 10 C-3.66 10 -4.32 10 -5 10 C-4.125 4.25 -4.125 4.25 -3 2 C-2.01 2 -1.02 2 0 2 C0 1.34 0 0.68 0 0 Z " fill="#EDC585" transform="translate(570,407)"/>
<path d="M0 0 C2.4992935 2.1732987 3.60976535 3.68300548 4 7 C3.5625 9.75 3.5625 9.75 3 12 C1 11 1 11 0.375 9.375 C-0.12095645 6.2339425 -0.06103811 3.17398169 0 0 Z " fill="#CDA668" transform="translate(586,809)"/>
<path d="M0 0 C0.99 0 1.98 0 3 0 C5.25 2.25 5.25 2.25 7 5 C6.609375 7.171875 6.609375 7.171875 6 9 C4.99406757 7.8803014 3.9954151 6.7540588 3 5.625 C2.443125 4.99851562 1.88625 4.37203125 1.3125 3.7265625 C0 2 0 2 0 0 Z " fill="#C6A25B" transform="translate(615,875)"/>
<path d="M0 0 C-2.25 2.5 -2.25 2.5 -5 5 C-6.32 5 -7.64 5 -9 5 C-9 4.34 -9 3.68 -9 3 C-8.34 3 -7.68 3 -7 3 C-6.67 2.01 -6.34 1.02 -6 0 C-3.42525708 -0.99667468 -2.51072708 -1.25536354 0 0 Z " fill="#AD8955" transform="translate(502,687)"/>
<path d="M0 0 C2.52631142 3.12781414 4.42373366 6.29577411 6 10 C5.67 10.99 5.34 11.98 5 13 C1.55524038 8.61576048 -0.31620235 5.69164233 0 0 Z " fill="#E8B782" transform="translate(790,620)"/>
<path d="M0 0 C0.66 0.33 1.32 0.66 2 1 C1.8125 2.8125 1.8125 2.8125 1 5 C-1.5625 6.75 -1.5625 6.75 -4 8 C-4 4.09161134 -2.49432124 2.88405893 0 0 Z " fill="#E7C18B" transform="translate(691,585)"/>
<path d="M0 0 C0.66 0 1.32 0 2 0 C0.25 5.75 0.25 5.75 -2 8 C-2.99 7.67 -3.98 7.34 -5 7 C-3.625 4.5 -3.625 4.5 -2 2 C-1.34 2 -0.68 2 0 2 C0 1.34 0 0.68 0 0 Z " fill="#B7964E" transform="translate(487,579)"/>
<path d="M0 0 C2.36964362 2.15422147 3.57980514 4.15961028 5 7 C6.5412312 8.70921589 6.5412312 8.70921589 8 10 C7.01 10.33 6.02 10.66 5 11 C2.03947516 7.63576723 1.07710178 4.30840713 0 0 Z " fill="#FCDC9D" transform="translate(739,518)"/>
<path d="M0 0 C0.66 0.33 1.32 0.66 2 1 C2.72886734 3.7696959 3 6.12862585 3 9 C2.01 9.495 2.01 9.495 1 10 C0.01 7.03 -0.98 4.06 -2 1 C-1.34 0.67 -0.68 0.34 0 0 Z " fill="#F8D998" transform="translate(682,396)"/>
<path d="M0 0 C3.39417765 3.12621626 5.6062718 5.56541027 7 10 C6.01 10.33 5.02 10.66 4 11 C3.32591692 9.73308493 2.66099503 8.46129251 2 7.1875 C1.62875 6.47980469 1.2575 5.77210938 0.875 5.04296875 C0 3 0 3 0 0 Z " fill="#FEEDB4" transform="translate(650,332)"/>
<path d="M0 0 C0.66 0.33 1.32 0.66 2 1 C-0.475 5.455 -0.475 5.455 -3 10 C-3.66 9.01 -4.32 8.02 -5 7 C-3.70700306 4.11562221 -2.34058637 2.12780579 0 0 Z " fill="#FDE5A5" transform="translate(609,325)"/>
<path d="M0 0 C1.34173403 0.92543709 2.67320159 1.86577405 4 2.8125 C5.11375 3.59560547 5.11375 3.59560547 6.25 4.39453125 C6.8275 4.92433594 7.405 5.45414063 8 6 C8 6.99 8 7.98 8 9 C6.65826597 8.07456291 5.32679841 7.13422595 4 6.1875 C3.2575 5.66542969 2.515 5.14335938 1.75 4.60546875 C1.1725 4.07566406 0.595 3.54585937 0 3 C0 2.01 0 1.02 0 0 Z " fill="#C59D65" transform="translate(617,935)"/>
<path d="M0 0 C3.0916909 2.52956528 3.90931332 5.22454612 5 9 C3.0625 8.4375 3.0625 8.4375 1 7 C0.25 3.375 0.25 3.375 0 0 Z " fill="#C6A058" transform="translate(569,871)"/>
<path d="M0 0 C2.0343459 1.41519715 2.90410393 2.54982123 3.421875 4.98046875 C3.66273952 6.98176954 3.83532741 8.9909944 4 11 C0.85041169 7.57653445 0.43820891 4.55737263 0 0 Z " fill="#DFAE7A" transform="translate(904,858)"/>
<path d="M0 0 C0.268125 0.639375 0.53625 1.27875 0.8125 1.9375 C1.88667752 4.33131686 1.88667752 4.33131686 5 5 C5.33 5.99 5.66 6.98 6 8 C5.01 9.485 5.01 9.485 4 11 C3.32591692 9.73308493 2.66099503 8.46129251 2 7.1875 C1.62875 6.47980469 1.2575 5.77210938 0.875 5.04296875 C0 3 0 3 0 0 Z " fill="#FEECAE" transform="translate(664,361)"/>
<path d="M0 0 C4.55737263 0.43820891 7.57653445 0.85041169 11 4 C9.4375 4.75 9.4375 4.75 7 5 C4.49713591 3.86915563 2.32992278 2.47860484 0 1 C0 0.67 0 0.34 0 0 Z " fill="#DBB568" transform="translate(697,944)"/>
<path d="M0 0 C2.15377564 2.62198774 3.40072174 4.64404172 4 8 C4.66 8 5.32 8 6 8 C6.33 8.99 6.66 9.98 7 11 C6.34 11.66 5.68 12.32 5 13 C4.15930585 11.39967863 3.32768495 9.79458829 2.5 8.1875 C1.80390625 6.84751953 1.80390625 6.84751953 1.09375 5.48046875 C0 3 0 3 0 0 Z " fill="#ECC186" transform="translate(853,754)"/>
<path d="M0 0 C3 1 3 1 4.75 3.9375 C5.1625 4.948125 5.575 5.95875 6 7 C5.67 7.66 5.34 8.32 5 9 C2.9754262 7.06745228 1.57894208 5.36841312 0 3 C0 2.01 0 1.02 0 0 Z " fill="#CBA16F" transform="translate(641,663)"/>
<path d="M0 0 C-0.57344937 2.86724686 -0.8614515 3.8614515 -3 6 C-5.125 5.625 -5.125 5.625 -7 5 C-2.25 0 -2.25 0 0 0 Z " fill="#EBBE74" transform="translate(658,563)"/>
<path d="M0 0 C1.1171875 1.734375 1.1171875 1.734375 2 4 C1.3203125 6.140625 1.3203125 6.140625 0.125 8.25 C-0.26429688 8.95640625 -0.65359375 9.6628125 -1.0546875 10.390625 C-1.36664062 10.92171875 -1.67859375 11.4528125 -2 12 C-3.40907283 9.18185434 -2.50872691 7.82722796 -1.5625 4.875 C-1.27503906 3.96492188 -0.98757813 3.05484375 -0.69140625 2.1171875 C-0.46324219 1.41851562 -0.23507812 0.71984375 0 0 Z " fill="#FCDCA0" transform="translate(596,348)"/>
<path d="M0 0 C0.99 0.33 1.98 0.66 3 1 C4.1875 4.0625 4.1875 4.0625 5 7 C4.34 7.66 3.68 8.32 3 9 C0 3.375 0 3.375 0 0 Z " fill="#C19E61" transform="translate(597,844)"/>
<path d="M0 0 C1 3 1 3 -0.4375 6.1875 C-1.2109375 7.5796875 -1.2109375 7.5796875 -2 9 C-2.66 9 -3.32 9 -4 9 C-3.67 7.02 -3.34 5.04 -3 3 C-2.01 2.67 -1.02 2.34 0 2 C0 1.34 0 0.68 0 0 Z " fill="#A87D4C" transform="translate(418,723)"/>
<path d="M0 0 C0.99 0 1.98 0 3 0 C3.66 1.98 4.32 3.96 5 6 C4.01 6.33 3.02 6.66 2 7 C0.5393715 4.35261084 0 3.10551666 0 0 Z " fill="#FCDC99" transform="translate(728,495)"/>
<path d="M0 0 C4.875 4.625 4.875 4.625 6 8 C5.01 9.485 5.01 9.485 4 11 C3.32591692 9.73308493 2.66099503 8.46129251 2 7.1875 C1.62875 6.47980469 1.2575 5.77210938 0.875 5.04296875 C0 3 0 3 0 0 Z " fill="#E8C475" transform="translate(899,850)"/>
<path d="M0 0 C0.66 0.66 1.32 1.32 2 2 C1.6730244 4.61580479 1.17960932 6.64078137 0 9 C-0.66 8.67 -1.32 8.34 -2 8 C-1.125 2.25 -1.125 2.25 0 0 Z " fill="#B46B41" transform="translate(384,790)"/>
<path d="M0 0 C2.25245881 2.68841859 3.88213958 4.64641875 5 8 C2.5625 7.1875 2.5625 7.1875 0 6 C-1 3 -1 3 0 0 Z " fill="#F3D3A2" transform="translate(759,556)"/>
<path d="M0 0 C0.99 0 1.98 0 3 0 C2.625 2.9375 2.625 2.9375 2 6 C1.01 6.495 1.01 6.495 0 7 C-1.125 2.25 -1.125 2.25 0 0 Z " fill="#FBD999" transform="translate(713,546)"/>
<path d="M0 0 C0.33 1.32 0.66 2.64 1 4 C-1.475 5.485 -1.475 5.485 -4 7 C-4 4 -4 4 -2 1.8125 C-1.34 1.214375 -0.68 0.61625 0 0 Z " fill="#F4C786" transform="translate(674,545)"/>
<path d="M0 0 C0.53625 0.28875 1.0725 0.5775 1.625 0.875 C4.35280484 2.16711808 7.12612718 3.08558592 10 4 C10 4.33 10 4.66 10 5 C8.02 5.33 6.04 5.66 4 6 C2.68 4.02 1.36 2.04 0 0 Z " fill="#C69E66" transform="translate(632,949)"/>
<path d="M0 0 C2.4750171 1.11431765 4.67883419 2.58150978 7 4 C7 4.33 7 4.66 7 5 C4.75 5.25 4.75 5.25 2 5 C-0.3125 3 -0.3125 3 -2 1 C-1.34 0.67 -0.68 0.34 0 0 Z " fill="#D2B156" transform="translate(672,926)"/>
<path d="M0 0 C1.9375 0.75 1.9375 0.75 4 2 C4.875 4 4.875 4 5 6 C4.34 6.66 3.68 7.32 3 8 C0 2.25 0 2.25 0 0 Z " fill="#E8B582" transform="translate(870,790)"/>
<path d="M0 0 C1.10348268 3.31044803 0.99444068 5.65506316 0 9 C-0.99 9.495 -0.99 9.495 -2 10 C-2.17942163 6.05272412 -2.09350689 3.4019487 0 0 Z " fill="#B4783F" transform="translate(434,686)"/>
<path d="M0 0 C1.1875 1.6875 1.1875 1.6875 2 4 C0.625 6.75 0.625 6.75 -1 9 C-2.60031344 5.79937313 -1.03173691 3.27728194 0 0 Z " fill="#A48252" transform="translate(460,633)"/>
<path d="M0 0 C1.32 1.65 2.64 3.3 4 5 C3.67 5.66 3.34 6.32 3 7 C1.68 6.34 0.36 5.68 -1 5 C-0.67 3.35 -0.34 1.7 0 0 Z " fill="#FAE0AB" transform="translate(679,390)"/>
<path d="M0 0 C2.50298434 2.93828597 3.46930939 5.17902761 4 9 C2.35 7.68 0.7 6.36 -1 5 C-0.67 3.35 -0.34 1.7 0 0 Z " fill="#D4A774" transform="translate(888,824)"/>
<path d="M0 0 C1.9375 0.8125 1.9375 0.8125 4 2 C4.33 2.99 4.66 3.98 5 5 C4.01 6.485 4.01 6.485 3 8 C0 2.25 0 2.25 0 0 Z " fill="#E4C171" transform="translate(884,819)"/>
<path d="M0 0 C0.99 0 1.98 0 3 0 C2.49396008 2.16874252 2.00016187 3.99967627 1 6 C0.01 5.67 -0.98 5.34 -2 5 C-1.34 3.35 -0.68 1.7 0 0 Z " fill="#AE7D50" transform="translate(450,746)"/>
<path d="M0 0 C0.99 0.33 1.98 0.66 3 1 C1.63016497 4.16115776 1.0109362 4.9927092 -2 7 C-1.34 4.69 -0.68 2.38 0 0 Z " fill="#D6B162" transform="translate(597,730)"/>
<path d="M0 0 C1.32 0 2.64 0 4 0 C4 0.66 4 1.32 4 2 C1.5 3.625 1.5 3.625 -1 5 C-1 1 -1 1 0 0 Z " fill="#DABB5E" transform="translate(618,594)"/>
<path d="M0 0 C0.86625 0.3403125 0.86625 0.3403125 1.75 0.6875 C0.1 2.0075 -1.55 3.3275 -3.25 4.6875 C-4.24 4.0275 -5.23 3.3675 -6.25 2.6875 C-2.80384615 -0.38942308 -2.80384615 -0.38942308 0 0 Z " fill="#DCB769" transform="translate(642.25,577.3125)"/>
<path d="M0 0 C0.66 0.99 1.32 1.98 2 3 C1.34 4.32 0.68 5.64 0 7 C-0.99 7 -1.98 7 -3 7 C-1.125 1.125 -1.125 1.125 0 0 Z " fill="#B18F5E" transform="translate(502,546)"/>
<path d="M0 0 C0.66 0.33 1.32 0.66 2 1 C0.02 3.97 0.02 3.97 -2 7 C-2.66 6.67 -3.32 6.34 -4 6 C-2.25 1.125 -2.25 1.125 0 0 Z " fill="#ECC47B" transform="translate(691,524)"/>
<path d="M0 0 C0.66 0.33 1.32 0.66 2 1 C1.67 2.65 1.34 4.3 1 6 C0.34 6 -0.32 6 -1 6 C-1.33 6.99 -1.66 7.98 -2 9 C-2.33 8.34 -2.66 7.68 -3 7 C-2.06421005 4.64018187 -1.06652192 2.30368736 0 0 Z " fill="#CD9F70" transform="translate(536,474)"/>
<path d="M0 0 C0.99 1.32 1.98 2.64 3 4 C2.34 5.32 1.68 6.64 1 8 C0.01 6.68 -0.98 5.36 -2 4 C-1.34 3.67 -0.68 3.34 0 3 C0 2.01 0 1.02 0 0 Z " fill="#F3CB89" transform="translate(707,448)"/>
<path d="" fill="#FF0000" transform="translate(0,0)"/>
<path d="" fill="#FF0000" transform="translate(0,0)"/>
<path d="" fill="#808080" transform="translate(0,0)"/>
<path d="" fill="#FF0000" transform="translate(0,0)"/>
</svg>
